<svg version="1.1" viewBox="0.0 0.0 960.0 720.0" fill="none" stroke="none" stroke-linecap="square" stroke-miterlimit="10" xmlns:xlink="http://www.w3.org/1999/xlink" xmlns="http://www.w3.org/2000/svg"><clipPath id="g46d38d5568_0_35.0"><path d="m0 0l960.0 0l0 720.0l-960.0 0l0 -720.0z" clip-rule="nonzero"/></clipPath><g clip-path="url(#g46d38d5568_0_35.0)"><path fill="#ffffff" d="m0 0l960.0 0l0 720.0l-960.0 0z" fill-rule="evenodd"/><path fill="#ffffff" d="m0 129.6l960.00006 0l0 33.59999l-960.00006 0z" fill-rule="evenodd"/><path fill="#dd8047" d="m0 134.4l56.0 0l0 24.0l-56.0 0z" fill-rule="evenodd"/><path fill="#94b6d2" d="m62.0 134.4l898.0 0l0 24.0l-898.0 0z" fill-rule="evenodd"/><path fill="#000000" fill-opacity="0.0" d="m64.32 24.0l856.0 0l0 104.0l-856.0 0z" fill-rule="evenodd"/><path fill="#775f55" d="m303.28485 98.929375q-8.015625 -6.1875 -13.28125 -15.359375l0 17.640625q-2.984375 2.75 -2.984375 0.234375l0 -17.421875q-7.78125 10.09375 -19.015625 16.046875q-1.609375 0.453125 -0.453125 -0.921875q11.453125 -7.5625 18.09375 -17.640625l-7.5625 0l0 2.0625q-2.96875 2.75 -2.96875 0.234375l0 -19.015625l3.4375 1.59375l8.46875 0l0 -5.953125l-13.0625 0l0 -1.375l13.0625 0l0 -8.9375l4.125 0.6875q2.53125 0.921875 -1.140625 1.84375l0 6.40625l9.84375 0l2.984375 -2.984375l3.671875 2.75q1.375 1.15625 0 1.609375l-16.5 0l0 5.953125l9.15625 0l1.375 -1.828125l3.21875 2.296875q1.375 1.140625 -0.921875 1.59375l0 14.4375q-2.984375 2.75 -2.984375 0.234375l0 -1.609375l-9.84375 0q5.953125 9.859375 17.40625 14.890625q-2.515625 0.6875 -4.125 2.53125zm-48.5625 -39.421875q-1.609375 -1.375 0.453125 -0.90625q1.828125 0.6875 3.203125 1.828125l4.59375 -11.21875l3.421875 2.28125q1.609375 1.828125 -1.359375 1.15625l-5.96875 8.234375q2.296875 2.0625 2.296875 3.90625q0 1.59375 -1.140625 1.59375q-1.15625 0 -2.0625 -2.28125q-0.6875 -1.84375 -3.4375 -4.59375zm5.265625 22.6875q1.609375 1.140625 -1.375 1.609375q-1.140625 7.78125 -4.578125 14.65625q-1.375 1.609375 -0.921875 -0.453125q2.75 -7.796875 2.984375 -16.71875l3.890625 0.90625zm11.0 7.109375q-1.375 -4.59375 -3.21875 -7.109375q-0.90625 -1.140625 0.46875 -0.6875q2.75 1.828125 4.34375 4.578125q1.375 2.296875 1.375 3.90625q0 1.59375 -1.140625 1.59375q-1.140625 0 -1.828125 -2.28125zm2.0625 -11.6875q0 2.0625 -1.375 2.0625q-1.15625 0 -1.375 -1.609375q-0.234375 -1.140625 -0.46875 -2.28125l-4.796875 0.90625l0 24.515625q-2.984375 2.75 -2.984375 0.234375l0 -24.28125l-5.953125 0.90625q-0.46875 3.21875 -1.84375 1.15625l-1.375 -3.671875l5.96875 -0.234375l9.15625 -18.09375l3.4375 2.28125q1.375 1.15625 -1.828125 1.375l-9.625 14.4375l9.625 -0.453125q-0.6875 -2.296875 -2.296875 -4.125q-1.140625 -1.140625 0.453125 -0.6875q2.0625 1.140625 3.671875 3.4375q1.609375 2.296875 1.609375 4.125zm13.96875 2.515625l0 -5.71875l-8.9375 0l0 5.71875l8.9375 0zm-8.9375 -7.09375l8.9375 0l0 -5.28125l-8.9375 0l0 5.28125zm21.765625 1.375l-9.84375 0l0 5.71875l9.84375 0l0 -5.71875zm-9.84375 -1.375l9.84375 0l0 -5.28125l-9.84375 0l0 5.28125zm42.15625 -7.34375q-7.5625 4.359375 -15.125 8.25q-0.21875 2.75 -2.0625 0.921875l-2.96875 -2.984375q12.59375 -3.4375 20.15625 -7.328125l0 -11.0l-19.46875 0l0 -1.375l18.78125 0l1.375 -1.828125l3.203125 2.296875q1.375 1.140625 -0.90625 1.59375l0 15.8125q0 2.296875 -1.609375 3.890625q-0.921875 0.921875 -2.515625 0.921875q-0.6875 0 -0.6875 -1.140625q0 -1.375 -1.375 -1.609375l-2.984375 -0.453125q-0.921875 -0.46875 0 -0.921875l4.578125 0q1.609375 0 1.609375 -1.609375l0 -3.4375zm-8.9375 -6.40625q1.828125 1.59375 1.828125 3.203125q0 1.828125 -1.140625 1.828125q-1.140625 0 -1.828125 -1.59375q-1.140625 -2.75 -5.046875 -5.28125q-1.140625 -0.90625 0.46875 -0.90625q3.890625 1.140625 5.71875 2.75zm38.03125 -6.640625q1.375 1.140625 -0.90625 1.59375l0 16.5q0 2.296875 -1.609375 3.890625q-0.921875 0.921875 -2.515625 0.921875q-0.6875 0 -0.6875 -1.140625q0 -1.15625 -1.15625 -1.375l-3.203125 -0.6875q-0.90625 -0.46875 0 -0.921875l4.578125 0q1.609375 0 1.609375 -1.609375l0 -5.71875q-6.640625 3.890625 -13.515625 7.328125q-0.453125 2.296875 -1.609375 1.140625l-3.203125 -3.203125q8.9375 -2.296875 18.328125 -6.421875l0 -9.390625l-18.78125 0l0 -1.375l18.09375 0l1.375 -1.828125l3.203125 2.296875zm-20.15625 3.421875q4.359375 0.921875 6.421875 2.984375q1.59375 1.609375 1.59375 2.984375q0 1.59375 -1.59375 1.59375q-1.375 0 -1.84375 -1.828125q-0.453125 -2.0625 -4.8125 -5.046875q-0.90625 -0.6875 0.234375 -0.6875zm-15.125 34.140625l0 7.5625l26.359375 0l0 -7.5625l-26.359375 0zm0 -8.921875l0 7.546875l26.359375 0l0 -7.546875l-26.359375 0zm30.25 -0.921875q1.375 1.140625 -0.921875 1.609375l0 19.703125q-2.96875 2.75 -2.96875 0.21875l0 -2.75l-26.359375 0l0 2.984375q-2.96875 2.75 -2.96875 0.234375l0 -24.296875l3.421875 1.84375l8.484375 0l1.828125 -7.5625l4.125 2.0625q1.84375 0.6875 -1.828125 1.59375l-2.296875 3.90625l14.90625 0l1.375 -1.84375l3.203125 2.296875zm19.9375 -3.203125l0 -2.0625l41.6875 0l0 2.0625l-41.6875 0z" fill-rule="nonzero"/><path fill="#775f55" d="m455.1989 62.491875l-11.0 0l0 -1.375l11.0 0l0 -11.21875l4.125 0.6875q2.515625 0.90625 -1.140625 1.828125l0 8.703125l8.9375 0l1.375 -1.828125l3.203125 2.28125q1.375 1.15625 -0.921875 1.609375l0 6.875q0 22.21875 -4.578125 26.8125q-2.0625 2.0625 -4.125 2.0625q-1.140625 0 -1.140625 -0.921875q0 -1.375 -1.15625 -2.0625l-3.203125 -2.0625q-1.375 -0.921875 0 -0.921875l2.984375 1.15625q1.828125 0.6875 3.203125 0.6875q0.921875 0 1.375 -0.46875q3.671875 -3.65625 3.671875 -23.59375l0 -8.25l-9.625 0l0 2.515625q0 22.453125 -15.578125 34.375q-1.375 0.921875 -0.6875 -0.6875q13.28125 -13.296875 13.28125 -32.53125l0 -3.671875zm24.984375 -3.203125l10.296875 0l1.375 -1.84375l3.21875 2.296875q1.375 1.140625 -0.921875 1.609375l0 34.59375q-2.984375 2.75 -2.984375 0.234375l0 -2.75l-11.21875 0l0 5.265625q-2.984375 2.75 -2.984375 0.234375l0 -41.703125l3.21875 2.0625zm10.984375 1.375l-11.21875 0l0 31.390625l11.21875 0l0 -31.390625zm64.390625 15.578125q1.375 1.140625 0 1.609375l-21.078125 0l-9.859375 17.40625q11.46875 -1.140625 23.609375 -2.75q-2.0625 -3.203125 -5.734375 -6.421875q-0.6875 -1.140625 0.6875 -0.90625q10.546875 5.953125 10.546875 10.53125q0 2.75 -1.84375 2.75q-0.6875 0 -1.140625 -0.90625q-0.921875 -2.53125 -1.828125 -3.90625q-14.4375 2.75 -28.1875 5.5q-0.6875 3.21875 -2.0625 0.921875l-2.75 -4.359375q4.578125 0 7.109375 -0.21875l7.09375 -17.640625l-13.0625 0l0 -1.375l15.125 0l0 -12.15625l-10.078125 0l0 -1.375l10.078125 0l0 -12.359375l3.90625 0.6875q1.828125 1.140625 -0.921875 1.59375l0 10.078125l9.84375 0l2.984375 -2.96875l3.671875 2.75q1.375 1.140625 0 1.59375l-16.5 0l0 12.15625l12.59375 0l3.4375 -3.4375l4.359375 3.203125zm-48.34375 -24.75q-0.453125 -0.6875 0.453125 -0.6875q7.5625 2.296875 7.5625 6.421875q0 1.59375 -1.59375 1.59375q-1.15625 0 -1.609375 -1.375q-1.609375 -3.890625 -4.8125 -5.953125zm-3.890625 13.296875q-0.46875 -0.6875 0.453125 -0.6875q6.875 3.203125 6.875 7.09375q0 1.84375 -1.828125 1.84375q-0.921875 0 -1.609375 -2.296875q-0.6875 -2.296875 -3.890625 -5.953125zm-0.234375 19.46875l5.5 0l11.453125 -28.40625q1.375 -0.921875 1.140625 0.21875l-9.609375 28.640625q-0.6875 2.53125 -0.46875 5.96875q0.46875 2.28125 0.921875 5.03125q0.234375 2.0625 0.234375 3.671875q0 2.296875 -2.53125 2.296875q-2.0625 0 -2.0625 -2.75q0.921875 -6.875 0.921875 -10.546875q0 -2.0625 -2.0625 -2.515625l-3.4375 -0.6875l0 -0.921875zm94.40625 -12.375l0 -21.53125l3.890625 0.6875q1.828125 1.140625 -0.921875 1.609375l0 19.234375l5.734375 0l3.4375 -3.4375l4.34375 3.21875q1.375 1.140625 0 1.59375l-13.515625 0l0 26.8125q-2.96875 2.75 -2.96875 0.234375l0 -27.046875l-11.6875 0l0 -1.375l11.6875 0zm-19.03125 11.234375l1.375 -1.609375l2.984375 2.0625q1.375 1.140625 -0.921875 1.609375l0 12.59375q-2.96875 2.75 -2.96875 0.234375l0 -1.375l-10.078125 0l0 4.125q-2.984375 2.75 -2.984375 0.234375l0 -19.484375l3.4375 1.609375l9.15625 0zm-14.203125 -7.796875l13.296875 0l2.96875 -2.96875l3.671875 2.75q1.375 1.140625 0 1.59375l-19.9375 0l0 -1.375zm0 -6.640625l12.609375 0l2.96875 -2.984375l3.671875 2.75q1.375 1.15625 0 1.609375l-19.25 0l0 -1.375zm-2.515625 -7.109375l17.1875 0l3.4375 -3.4375l4.34375 3.21875q1.375 1.140625 0 1.59375l-24.96875 0l0 -1.375zm2.75 -7.328125l11.21875 0l2.984375 -2.96875l3.671875 2.734375q1.375 1.15625 0 1.609375l-17.875 0l0 -1.375zm4.359375 30.25l0 10.765625l10.078125 0l0 -10.765625l-10.078125 0zm51.3125 -19.015625q5.734375 -5.96875 9.171875 -17.1875l3.890625 2.0625q1.140625 0.921875 -1.375 1.140625q-0.90625 1.609375 -2.515625 3.890625l9.84375 0l2.984375 -2.96875l3.671875 2.75q1.375 1.140625 0 1.59375l-12.15625 0q4.59375 2.296875 4.59375 5.046875q0 1.828125 -1.15625 1.828125q-0.6875 0 -0.90625 -0.453125q-1.609375 -4.359375 -3.671875 -6.421875l-3.890625 0q-3.4375 5.96875 -7.796875 9.171875q-0.90625 0.453125 -0.6875 -0.453125zm33.234375 -13.515625q-1.15625 2.046875 -2.0625 3.421875l11.671875 0l2.984375 -2.96875l3.671875 2.75q1.375 1.140625 0 1.59375l-15.578125 0q4.125 2.53125 4.125 5.28125q0 2.0625 -1.375 2.0625q-0.6875 0 -1.15625 -1.15625q-0.453125 -3.203125 -2.75 -6.1875l-2.28125 0q-3.21875 5.046875 -6.1875 7.109375q-0.921875 0.6875 -0.6875 -0.453125q4.8125 -6.1875 7.09375 -14.671875l4.125 2.0625q1.375 1.15625 -1.59375 1.15625zm-20.171875 31.84375l0 2.515625q-2.96875 2.75 -2.96875 0.234375l0 -23.375l3.421875 2.296875l25.671875 0l1.375 -1.84375l3.203125 2.296875q1.375 1.140625 -0.921875 1.609375l0 17.859375q-2.96875 2.75 -2.96875 0.234375l0 -1.828125l-5.046875 0l0 5.953125l8.25 0l3.4375 -3.4375l4.359375 3.203125q1.375 1.15625 0 1.609375l-16.046875 0l0 10.078125q-2.96875 2.75 -2.96875 0.234375l0 -10.3125l-10.78125 0q-1.375 9.390625 -19.234375 11.6875q-0.921875 -0.453125 0 -0.921875q15.109375 -3.65625 16.265625 -10.765625l-18.328125 0l0 -1.375l18.546875 0q0.46875 -1.828125 0.6875 -5.953125l-5.953125 0zm8.9375 0q-0.234375 3.65625 -0.6875 5.953125l10.546875 0l0 -5.953125l-9.859375 0zm-8.9375 -12.609375l26.8125 0l0 -4.34375l-26.8125 0l0 4.34375zm0 5.734375l26.8125 0l0 -4.359375l-26.8125 0l0 4.359375zm26.8125 5.5l0 -4.125l-26.8125 0l0 4.125l26.8125 0zm27.71875 18.5625q-2.96875 2.75 -2.96875 0.21875l0 -24.96875q-3.4375 7.5625 -7.34375 11.453125q-1.59375 1.140625 -1.140625 -0.453125q6.640625 -9.859375 8.25 -22.6875l-6.875 0l0 -1.375l7.109375 0l0 -12.59375l3.890625 0.6875q1.828125 1.140625 -0.921875 1.59375l0 10.3125l1.375 0l2.515625 -2.515625l3.21875 2.28125q1.375 1.15625 0 1.609375l-7.109375 0l0 8.9375q3.203125 0.921875 4.8125 2.515625q1.140625 1.15625 1.140625 2.53125q0 1.375 -1.140625 1.375q-1.140625 0 -1.609375 -1.375q-0.90625 -2.53125 -3.203125 -3.90625l0 26.359375zm26.359375 -41.484375q2.0625 0.6875 3.4375 1.609375l4.34375 -9.625l2.75 1.828125q1.828125 1.609375 -1.609375 1.375l-4.578125 6.875q3.203125 2.984375 1.609375 4.8125q-1.609375 0.921875 -2.296875 -0.6875q-1.375 -3.890625 -3.890625 -5.5q-0.453125 -0.453125 0.234375 -0.6875zm-15.59375 2.75q1.375 1.609375 1.375 3.4375q0 2.0625 -1.59375 2.0625q-1.609375 0 -1.375 -2.28125q0 -2.984375 -2.296875 -5.5q-0.453125 -0.46875 0.234375 -0.6875q2.28125 1.375 2.96875 2.0625l3.90625 -9.390625l2.75 1.828125q1.140625 1.375 -1.15625 1.140625l-4.8125 7.328125zm-0.21875 12.84375l7.328125 -1.15625q-0.453125 -1.375 -1.140625 -2.515625q-0.234375 -1.140625 0.6875 -0.453125q3.4375 2.96875 3.4375 6.1875q0 1.59375 -1.375 1.59375q-0.921875 0 -1.15625 -1.375q0 -1.140625 -0.21875 -2.75l-8.03125 2.53125q-0.90625 3.203125 -1.828125 0.90625l-1.140625 -2.96875l2.515625 0l7.796875 -14.671875l2.75 2.0625q1.828125 1.609375 -1.609375 1.375l-8.015625 11.234375zm4.125 12.59375q6.640625 2.515625 6.640625 5.953125q0 1.609375 -1.375 1.609375q-1.140625 0 -1.609375 -1.140625q-0.90625 -3.4375 -3.890625 -5.28125q-2.515625 7.5625 -10.765625 12.15625q-1.140625 0.453125 -0.46875 -0.6875q8.9375 -5.96875 8.9375 -18.109375l-6.1875 0l0 -1.375l17.1875 0q-1.59375 -6.875 -1.59375 -13.515625l0 -16.953125l3.890625 0.6875q1.828125 1.140625 -0.921875 1.609375l0 16.484375q0 5.046875 1.609375 11.6875l6.640625 0q-0.6875 -4.34375 -2.96875 -6.1875l-0.46875 0.234375q0.234375 3.203125 -1.375 1.140625l-1.59375 -3.203125l4.578125 -0.6875l7.5625 -13.296875l2.75 2.0625q1.828125 1.375 -1.609375 1.15625l-7.5625 10.078125l6.640625 -1.375q-0.453125 -1.140625 -1.828125 -2.75q-0.921875 -1.140625 0.453125 -0.6875q2.75 1.375 4.125 3.203125q1.375 1.84375 1.375 3.21875q0 1.375 -1.140625 1.375q-1.375 0 -1.609375 -0.921875q-0.453125 -1.609375 -0.90625 -2.296875l-8.703125 2.53125q4.34375 1.828125 4.578125 4.34375q0 1.375 -0.921875 2.0625l2.296875 0l2.96875 -2.96875l3.671875 2.75q1.375 1.140625 0 1.59375l-16.5 0q1.375 4.578125 3.90625 8.015625q2.734375 -2.75 5.484375 -7.328125l3.4375 2.296875q1.84375 1.140625 -1.828125 1.375q-2.515625 2.96875 -5.5 5.71875q1.609375 1.84375 5.265625 3.90625q2.984375 1.375 3.4375 0l2.296875 -6.421875q0.453125 -1.375 0.921875 0l-1.15625 6.421875q-0.21875 1.140625 0.6875 2.28125q0.921875 2.0625 -0.6875 2.296875q-6.40625 0 -12.828125 -6.421875q-6.40625 5.96875 -13.75 8.484375q-1.140625 0 -0.21875 -0.6875q5.71875 -2.984375 12.375 -9.859375q-2.984375 -3.890625 -4.8125 -10.078125l-8.484375 0q0 2.984375 -0.453125 5.5z" fill-rule="nonzero"/><path fill="#b1c4da" d="m257.59842 230.859l0 0c0 -20.149368 16.33432 -36.483658 36.483673 -36.483658l433.9618 0c9.676086 0 18.955872 3.8437958 25.797852 10.685806c6.842041 6.8420258 10.685852 16.12178 10.685852 25.797852l0 145.93031c0 20.149353 -16.33429 36.483673 -36.483704 36.483673l-433.9618 0c-20.149353 0 -36.483673 -16.33432 -36.483673 -36.483673z" fill-rule="evenodd"/><path stroke="#78846a" stroke-width="4.0" stroke-linejoin="round" stroke-linecap="butt" d="m257.59842 230.859l0 0c0 -20.149368 16.33432 -36.483658 36.483673 -36.483658l433.9618 0c9.676086 0 18.955872 3.8437958 25.797852 10.685806c6.842041 6.8420258 10.685852 16.12178 10.685852 25.797852l0 145.93031c0 20.149353 -16.33429 36.483673 -36.483704 36.483673l-433.9618 0c-20.149353 0 -36.483673 -16.33432 -36.483673 -36.483673z" fill-rule="evenodd"/><path fill="#a5b592" d="m289.0841 222.7979l74.519684 0l0 40.913376l-74.519684 0z" fill-rule="evenodd"/><path stroke="#78846a" stroke-width="4.0" stroke-linejoin="round" stroke-linecap="butt" d="m289.0841 222.7979l74.519684 0l0 40.913376l-74.519684 0z" fill-rule="evenodd"/><path fill="#9900ff" d="m310.0216 238.82584l-2.09375 0.15625q-0.28125 -1.234375 -0.796875 -1.796875q-0.859375 -0.90625 -2.109375 -0.90625q-1.0 0 -1.765625 0.5625q-1.0 0.71875 -1.578125 2.125q-0.5625 1.390625 -0.59375 3.96875q0.765625 -1.15625 1.859375 -1.71875q1.109375 -0.5625 2.3125 -0.5625q2.109375 0 3.59375 1.546875q1.484375 1.546875 1.484375 4.015625q0 1.609375 -0.703125 3.0q-0.6875 1.390625 -1.90625 2.140625q-1.21875 0.734375 -2.765625 0.734375q-2.640625 0 -4.3125 -1.9375q-1.65625 -1.953125 -1.65625 -6.40625q0 -4.96875 1.84375 -7.234375q1.59375 -1.96875 4.3125 -1.96875q2.03125 0 3.328125 1.140625q1.296875 1.125 1.546875 3.140625zm-8.609375 7.40625q0 1.078125 0.453125 2.078125q0.46875 1.0 1.296875 1.53125q0.84375 0.515625 1.75 0.515625q1.34375 0 2.296875 -1.078125q0.96875 -1.078125 0.96875 -2.9375q0 -1.78125 -0.953125 -2.796875q-0.953125 -1.03125 -2.390625 -1.03125q-1.421875 0 -2.421875 1.03125q-1.0 1.015625 -1.0 2.6875z" fill-rule="nonzero"/><path fill="#a5b592" d="m484.8324 222.7979l74.51965 0l0 40.913376l-74.51965 0z" fill-rule="evenodd"/><path stroke="#78846a" stroke-width="4.0" stroke-linejoin="round" stroke-linecap="butt" d="m484.8324 222.7979l74.51965 0l0 40.913376l-74.51965 0z" fill-rule="evenodd"/><path fill="#9900ff" d="m494.84802 247.26334l2.109375 -0.28125q0.359375 1.78125 1.234375 2.578125q0.875 0.796875 2.125 0.796875q1.484375 0 2.5 -1.03125q1.03125 -1.03125 1.03125 -2.5625q0 -1.453125 -0.953125 -2.390625q-0.9375 -0.953125 -2.40625 -0.953125q-0.59375 0 -1.484375 0.234375l0.234375 -1.84375q0.203125 0.015625 0.34375 0.015625q1.34375 0 2.421875 -0.703125q1.078125 -0.703125 1.078125 -2.15625q0 -1.171875 -0.796875 -1.921875q-0.78125 -0.765625 -2.015625 -0.765625q-1.234375 0 -2.0625 0.78125q-0.8125 0.765625 -1.046875 2.3125l-2.109375 -0.375q0.390625 -2.125 1.75 -3.28125q1.375 -1.171875 3.421875 -1.171875q1.40625 0 2.578125 0.609375q1.1875 0.59375 1.8125 1.640625q0.640625 1.046875 0.640625 2.21875q0 1.109375 -0.609375 2.03125q-0.59375 0.90625 -1.765625 1.4375q1.53125 0.359375 2.375 1.46875q0.84375 1.109375 0.84375 2.765625q0 2.25 -1.640625 3.828125q-1.640625 1.5625 -4.15625 1.5625q-2.265625 0 -3.765625 -1.34375q-1.484375 -1.359375 -1.6875 -3.5z" fill-rule="nonzero"/><path fill="#000000" fill-opacity="0.0" d="m581.6116 213.12073l89.03937 0l0 40.91339l-89.03937 0z" fill-rule="evenodd"/><path fill="#000000" d="m607.5178 239.37198l-15.125 0l0 -2.625l15.125 0l0 2.625zm0 6.953125l-15.125 0l0 -2.625l15.125 0l0 2.625z" fill-rule="nonzero"/><path fill="#a5b592" d="m640.024 222.7979l74.519714 0l0 40.913376l-74.519714 0z" fill-rule="evenodd"/><path stroke="#78846a" stroke-width="4.0" stroke-linejoin="round" stroke-linecap="butt" d="m640.024 222.7979l74.519714 0l0 40.913376l-74.519714 0z" fill-rule="evenodd"/><path fill="#9900ff" d="m650.3365 247.82584l2.03125 -0.1875q0.25 1.421875 0.96875 2.078125q0.734375 0.640625 1.875 0.640625q0.96875 0 1.703125 -0.4375q0.734375 -0.453125 1.203125 -1.203125q0.46875 -0.75 0.78125 -2.015625q0.328125 -1.265625 0.328125 -2.578125q0 -0.140625 -0.015625 -0.421875q-0.640625 1.015625 -1.734375 1.640625q-1.09375 0.625 -2.375 0.625q-2.125 0 -3.609375 -1.546875q-1.46875 -1.546875 -1.46875 -4.078125q0 -2.609375 1.53125 -4.203125q1.546875 -1.59375 3.875 -1.59375q1.671875 0 3.0625 0.90625q1.390625 0.890625 2.109375 2.5625q0.71875 1.671875 0.71875 4.84375q0 3.28125 -0.71875 5.234375q-0.71875 1.953125 -2.125 2.984375q-1.40625 1.015625 -3.3125 1.015625q-2.015625 0 -3.296875 -1.125q-1.265625 -1.125 -1.53125 -3.140625zm8.640625 -7.59375q0 -1.8125 -0.96875 -2.875q-0.96875 -1.0625 -2.328125 -1.0625q-1.40625 0 -2.453125 1.15625q-1.03125 1.140625 -1.03125 2.96875q0 1.640625 0.984375 2.671875q0.984375 1.015625 2.4375 1.015625q1.46875 0 2.40625 -1.015625q0.953125 -1.03125 0.953125 -2.859375z" fill-rule="nonzero"/><path fill="#000000" fill-opacity="0.0" d="m390.46982 213.12073l89.03937 0l0 40.91339l-89.03937 0z" fill-rule="evenodd"/><path fill="#000000" d="m407.48544 249.1376l0 -6.28125l-6.234375 0l0 -2.625l6.234375 0l0 -6.234375l2.65625 0l0 6.234375l6.234375 0l0 2.625l-6.234375 0l0 6.28125l-2.65625 0z" fill-rule="nonzero"/><path fill="#000000" fill-opacity="0.0" d="m104.979004 439.7244l773.4803 0l0 212.28348l-773.4803 0z" fill-rule="evenodd"/><path fill="#0000ff" d="m128.32275 477.0069q-1.171875 2.359375 -4.859375 4.8125q-1.921875 0 -0.953125 -1.453125q4.25 -4.015625 5.328125 -11.90625l3.640625 0.984375q1.828125 1.84375 -1.15625 2.1875q-0.3125 1.734375 -1.125 3.46875q2.625 2.09375 4.03125 2.546875l0 -9.453125l-8.125 0l0 -2.0625l15.765625 0l2.078125 -2.078125l2.84375 2.09375q1.671875 1.390625 -0.296875 2.046875l-9.328125 0l0 3.6875l3.203125 0l2.078125 -2.078125l2.84375 2.09375q1.671875 1.390625 -0.296875 2.046875l-7.828125 0l0 4.40625q1.015625 0.15625 2.96875 0.15625l6.0 0.65625q-0.3125 0.796875 -1.125 2.15625l-6.125 0q-5.140625 0 -9.5625 -4.3125zm10.15625 -12.8125l-7.5625 0l0 0.75q-2.9375 2.71875 -2.9375 -0.15625l0 -12.03125l2.671875 1.25l7.78125 0l0.9375 -1.25l2.296875 1.640625q1.8125 1.515625 -0.25 1.921875l0 8.125q-2.9375 2.71875 -2.9375 -0.15625l0 -0.09375zm0 -6.3125l0 -1.8125l-7.5625 0l0 1.8125l7.5625 0zm0 2.0625l-7.5625 0l0 2.1875l7.5625 0l0 -2.1875zm-10.984375 2.6875q2.890625 0 0.765625 1.6875l-5.21875 3.21875l0 10.875q0 1.671875 -1.078125 2.609375q-0.6875 0.671875 -1.703125 0.671875q-1.15625 0 -1.15625 -1.28125q0 -0.15625 -0.25 -0.234375l-1.671875 -0.25q-1.765625 -0.890625 0.046875 -1.796875l2.65625 0q0.21875 0 0.21875 -0.21875l0 -8.734375l-1.1875 0.828125q0 3.984375 -2.0625 1.03125l-2.109375 -2.90625l5.359375 -2.28125l0 -4.40625l-4.75 0l0 -2.0625l4.75 0l0 -6.5l3.078125 0.515625q3.4375 1.25 -0.140625 2.15625l0 3.828125l0.453125 0l1.828125 -1.828125l2.46875 1.84375q1.671875 1.390625 -0.296875 2.046875l-4.453125 0l0 3.203125l4.453125 -2.015625zm45.1875 11.828125q-1.8125 -3.609375 -5.8125 -6.53125q-2.109375 -1.671875 0.671875 -1.671875q9.0 4.5 9.0 7.90625q0 2.03125 -1.65625 2.03125q-1.265625 0 -2.203125 -1.734375zm-25.015625 1.75q4.546875 -4.1875 7.34375 -10.3125l2.796875 2.140625q2.84375 2.515625 -1.25 1.84375q-3.453125 5.015625 -7.890625 7.890625q-3.03125 0.859375 -1.0 -1.5625zm0.4375 -13.578125l23.890625 0l2.078125 -2.078125l2.84375 2.09375q1.671875 1.390625 -0.296875 2.046875l-12.328125 0l0 12.71875q0 1.796875 -1.109375 2.75q-0.890625 0.75 -1.8125 0.890625q-1.515625 0.265625 -1.515625 -1.265625q0 -0.1875 -0.15625 -0.25l-2.25 -0.5q-2.203125 -0.875 0.0625 -1.78125l3.375 0q0.46875 0 0.46875 -0.46875l0 -12.09375l-13.25 0l0 -2.0625zm4.0 -5.0625l0 -2.0625l16.015625 0l2.078125 -2.078125l2.84375 2.09375q1.671875 1.390625 -0.296875 2.046875l-20.640625 0zm36.25 5.875q0.6875 0.703125 0.6875 1.71875q0 1.015625 -0.6875 1.71875q-0.703125 0.6875 -1.71875 0.6875q-1.015625 0 -1.71875 -0.6875q-0.6875 -0.703125 -0.6875 -1.71875q0 -1.015625 0.6875 -1.71875q0.703125 -0.6875 1.71875 -0.6875q1.015625 0 1.71875 0.6875zm0 11.75q0.6875 0.703125 0.6875 1.71875q0 1.015625 -0.6875 1.71875q-0.703125 0.6875 -1.71875 0.6875q-1.015625 0 -1.71875 -0.6875q-0.6875 -0.703125 -0.6875 -1.71875q0 -1.015625 0.6875 -1.71875q0.703125 -0.6875 1.71875 -0.6875q1.015625 0 1.71875 0.6875z" fill-rule="nonzero"/><path fill="#0000ff" d="m132.4165 512.78815q0 0.59375 0.59375 0.59375l2.53125 0l0 2.0625l-9.5625 0l0 -2.0625l2.53125 0q0.59375 0 0.59375 -0.59375l0 -14.875q0 -0.71875 -0.59375 -0.71875l-2.53125 0l0 -2.078125q4.3125 0.140625 6.4375 -1.5625l0 19.234375zm11.1875 -7.5q0 -5.609375 -3.6875 -9.28125q-3.671875 -3.6875 -9.28125 -3.6875q-5.609375 0 -9.28125 3.6875q-3.6875 3.671875 -3.6875 9.28125q0 5.609375 3.6875 9.28125q3.671875 3.6875 9.28125 3.6875q5.609375 0 9.28125 -3.6875q3.6875 -3.671875 3.6875 -9.28125zm2.3125 0q0 6.640625 -4.3125 10.96875q-4.328125 4.3125 -10.96875 4.3125q-6.640625 0 -10.96875 -4.3125q-4.3125 -4.328125 -4.3125 -10.96875q0 -6.640625 4.3125 -10.96875q4.328125 -4.3125 10.96875 -4.3125q6.640625 0 10.96875 4.3125q4.3125 4.328125 4.3125 10.96875z" fill-rule="nonzero"/><path fill="#0000ff" d="m174.7915 509.2569l6.453125 0l1.828125 -1.828125l2.46875 1.84375q1.671875 1.390625 -0.296875 2.046875l-10.453125 0l0 8.0q-2.9375 2.71875 -2.9375 -0.15625l0 -20.84375l-0.84375 0q-2.359375 4.125 -5.875 7.390625q-2.59375 1.296875 -1.296875 -1.28125q4.46875 -5.46875 7.390625 -14.234375l3.015625 1.109375q3.234375 1.296875 -0.765625 2.171875q-0.875 1.984375 -1.34375 2.78125l8.734375 0l2.078125 -2.078125l2.84375 2.09375q1.671875 1.390625 -0.296875 2.046875l-10.703125 0l0 4.5625l5.078125 0l1.828125 -1.828125l2.46875 1.84375q1.671875 1.390625 -0.296875 2.046875l-9.078125 0l0 4.3125zm-11.5 10.0625q-2.9375 2.71875 -2.9375 -0.15625l0 -15.28125q-1.09375 1.578125 -3.09375 3.59375q-2.171875 0.859375 -1.328125 -1.25q5.09375 -7.203125 6.84375 -15.8125l3.171875 1.171875q2.359375 1.765625 -0.6875 2.171875q-0.765625 2.265625 -1.890625 4.921875l0.0625 0.015625q2.515625 1.578125 -0.140625 2.03125l0 18.59375zm48.875 -21.25l0 2.125q-2.9375 2.71875 -2.9375 0.5l-5.4375 0l0 1.1875l5.828125 0l1.828125 -1.828125l2.46875 1.84375q1.671875 1.390625 -0.296875 2.046875l-9.828125 0l0 0.6875l7.828125 0l1.828125 -1.828125l2.46875 1.84375q1.671875 1.390625 -0.296875 2.046875l-27.390625 0l0 -2.0625l12.625 0l0 -0.6875l-10.0 0l0 -2.0625l10.0 0l0 -1.1875l-8.125 0l0 -2.0625l8.125 0l0 -0.5625l-12.875 0l0 -2.0625l12.875 0l0 -0.6875l-8.375 0l0 -2.0625l8.375 0l0 -3.265625l2.65625 0.53125q3.125 0.625 0.28125 2.046875l0 0.6875l5.578125 0l1.046875 -1.0625l1.828125 1.171875q2.71875 1.734375 -0.078125 2.328125l0 0.3125l0.703125 0l1.828125 -1.828125l2.46875 1.84375q1.671875 1.390625 -0.296875 2.046875l-4.703125 0zm-16.25 18.5q-2.9375 2.71875 -2.9375 -0.15625l0 -10.09375l2.6875 1.4375l13.578125 0l1.046875 -1.0625l1.828125 1.171875q2.71875 1.734375 -0.078125 2.328125l0 6.125q-2.9375 2.71875 -2.9375 -0.15625l0.03125 0l-13.21875 0.03125l0 0.375zm0 -5.5625l4.9375 0l0 -1.1875l-4.9375 0l0 1.1875zm0 3.125l4.9375 0l0 -1.0625l-4.9375 0l0 1.0625zm13.1875 -3.125l0 -1.1875l-5.3125 0l0 1.1875l5.3125 0zm0 3.125l0 -1.0625l-5.3125 0l0 1.0625l5.3125 0zm0.125 -18.8125l-5.4375 0l0 0.6875l5.4375 0l0 -0.6875zm8.171875 21.9375q1.96875 1.40625 -0.296875 2.0625l-29.0 0l0 -2.0625l24.390625 0l2.078125 -2.078125l2.828125 2.078125zm-8.171875 -19.1875l-5.4375 0l0 0.5625l5.4375 0l0 -0.5625zm11.125 -4.5625l23.765625 0l2.078125 -2.078125l2.84375 2.09375q1.671875 1.390625 -0.296875 2.046875l-12.609375 0l-2.84375 4.8125l10.859375 0l0.796875 -1.265625l2.5625 1.765625q2.1875 1.5625 -0.46875 1.96875l0 15.71875q-2.9375 2.71875 -2.9375 -0.15625l0 -0.59375l-18.9375 0l0 1.125q-2.9375 2.71875 -2.9375 -0.15625l0 -20.421875l2.75 2.015625l6.0625 0l1.5625 -4.8125l-12.25 0l0 -2.0625zm23.75 8.9375l-4.3125 0l0 13.3125l4.3125 0l0 -13.3125zm-7.25 0l-4.4375 0l0 2.8125l4.4375 0l0 -2.8125zm0 4.875l-4.4375 0l0 2.6875l4.4375 0l0 -2.6875zm0 4.75l-4.4375 0l0 3.6875l4.4375 0l0 -3.6875zm-7.375 3.6875l0 -13.3125l-4.3125 0l0 13.3125l4.3125 0z" fill-rule="nonzero"/><path fill="#9900ff" d="m133.854 538.41315q0 -1.984375 -0.6875 -2.65625q-1.046875 -1.0625 -2.53125 -1.0625q-1.734375 0 -2.78125 1.0625q-1.09375 1.078125 -0.71875 2.203125q0.40625 1.21875 0.40625 1.453125q0 1.65625 -1.90625 1.65625q-1.90625 0 -1.90625 -2.03125q0 -2.515625 1.6875 -4.21875q2.203125 -2.1875 5.34375 -2.1875q3.140625 0 5.09375 1.9375q1.4375 1.453125 1.4375 3.84375q0 2.9375 -2.125 4.640625q-6.84375 5.46875 -7.9375 6.578125q-0.703125 0.703125 -0.75 0.75l5.90625 0q1.796875 0 2.921875 -3.0l2.09375 0l-1.90625 6.0625l-12.515625 0l0 -1.671875q0.984375 -2.25 3.09375 -4.09375q2.734375 -2.625 5.84375 -5.46875q1.9375 -2.28125 1.9375 -3.796875zm6.0625 -4.40625q-3.671875 -3.6875 -9.28125 -3.6875q-5.609375 0 -9.28125 3.6875q-3.6875 3.671875 -3.6875 9.28125q0 5.609375 3.6875 9.28125q3.671875 3.6875 9.28125 3.6875q5.609375 0 9.28125 -3.6875q3.6875 -3.671875 3.6875 -9.28125q0 -5.609375 -3.6875 -9.28125zm1.6875 -1.6875q4.3125 4.328125 4.3125 10.96875q0 6.640625 -4.3125 10.96875q-4.328125 4.3125 -10.96875 4.3125q-6.640625 0 -10.96875 -4.3125q-4.3125 -4.328125 -4.3125 -10.96875q0 -6.640625 4.3125 -10.96875q4.328125 -4.3125 10.96875 -4.3125q6.640625 0 10.96875 4.3125z" fill-rule="nonzero"/><path fill="#9900ff" d="m162.19775 556.3194q8.078125 -2.359375 11.34375 -5.84375q-1.640625 -2.40625 -2.65625 -6.03125l-3.53125 0l0 -2.0625l10.734375 0l1.046875 -1.1875l2.3125 1.390625q3.3125 1.65625 -0.734375 2.296875q-1.515625 3.390625 -3.40625 5.59375q2.40625 2.109375 9.546875 4.4375q-3.21875 1.0625 -4.28125 2.296875q-4.6875 -2.0 -7.3125 -4.609375q-3.421875 3.53125 -12.4375 5.46875q-2.8125 0 -0.625 -1.75zm10.84375 -11.875q0.796875 2.515625 2.1875 4.171875q1.453125 -1.90625 2.421875 -4.171875l-4.609375 0zm-2.9375 -15.5l2.6875 1.4375l3.765625 0l0.9375 -1.25l2.296875 1.640625q1.8125 1.515625 -0.25 1.921875l0 5.46875q-0.15625 0 -0.15625 -0.15625l2.0 0q0.6875 0 0.734375 -0.328125l0.78125 -4.09375q1.046875 -1.03125 1.640625 0.171875l0 4.03125q0 0.21875 0.125 0.28125q1.828125 0.78125 0.171875 2.203125q-0.5625 0.546875 -2.703125 0.546875l-3.375 0q-2.15625 0 -2.15625 -2.15625l0 -6.21875l-3.5625 0l0 2.21875q0 4.46875 -4.34375 7.453125q-2.109375 0.84375 -1.234375 -1.34375q2.640625 -2.28125 2.640625 -5.859375l0 -5.96875zm-10.1875 18.75l0 4.5625l3.6875 0l0 -4.5625l-3.6875 0zm-0.21875 -2.0625l3.859375 0l0.9375 -1.25l2.296875 1.640625q1.8125 1.515625 -0.25 1.921875l0 6.625q-2.9375 2.71875 -2.9375 -0.15625l0 -0.09375l-3.6875 0l0 2.5q-2.9375 2.71875 -2.9375 -0.15625l0 -12.65625l2.71875 1.625zm-2.96875 -4.0l6.640625 0l1.46875 -1.46875l2.265625 1.78125q1.0625 1.40625 -0.65625 1.75l-9.71875 0l0 -2.0625zm0 -3.25l6.640625 0l1.46875 -1.46875l2.265625 1.78125q1.0625 1.40625 -0.65625 1.75l-9.71875 0l0 -2.0625zm-1.625 -4.0l10.015625 0l1.5625 -1.578125l2.234375 1.59375q1.671875 1.390625 -0.296875 2.046875l-13.515625 0l0 -2.0625zm1.625 -3.75l6.265625 0l1.46875 -1.46875l2.265625 1.78125q1.0625 1.40625 -0.65625 1.75l-9.34375 0l0 -2.0625zm56.0625 4.4375l-19.5 0q0 4.0 -2.90625 4.0q-1.53125 0 -1.53125 -1.53125q0 -0.765625 0.71875 -1.5q1.421875 -1.078125 1.53125 -3.5625q0.421875 -2.546875 1.75 -0.34375q0.171875 0.5 0.21875 0.875l8.28125 0l0 -5.0l3.015625 0.515625q3.71875 0.671875 -0.078125 2.09375l0 2.390625l8.515625 0l1.1875 -1.640625l3.796875 2.78125q2.34375 2.046875 -1.0625 2.046875q-1.21875 -0.109375 -1.75 0.4375l-1.40625 1.390625q-2.40625 2.015625 -1.5625 -0.9375l0.78125 -2.015625zm-0.25 3.203125q1.671875 1.390625 -0.296875 2.046875l-7.953125 0l0 4.8125l5.203125 0l1.828125 -1.828125l2.46875 1.84375q1.671875 1.390625 -0.296875 2.046875l-9.203125 0l0 6.71875q0.3125 0.09375 2.59375 0.09375l9.875 0.65625q-0.3125 0.796875 -1.125 2.15625l-9.875 0q-7.65625 0 -10.640625 -5.984375q-1.171875 3.34375 -5.453125 6.8125q-2.09375 0.421875 -1.1875 -1.375q4.65625 -4.53125 5.578125 -15.125l3.4375 1.15625q2.9375 1.296875 -0.65625 2.140625q-0.3125 2.0 -0.859375 3.765625q2.46875 4.265625 5.375 5.09375l0 -12.984375l-8.25 0l0 -2.0625l15.140625 0l1.828125 -1.828125l2.46875 1.84375zm23.75 -2.890625l4.390625 0l1.0625 -1.359375l2.53125 1.734375q2.28125 1.71875 -0.609375 2.109375l0 2.953125q-2.9375 2.71875 -2.9375 -0.15625l0.15625 0l-4.59375 0.15625l0 1.5625l5.265625 0l1.0625 -1.359375l2.53125 1.734375q2.28125 1.71875 -0.609375 2.109375l0 0.890625l0.828125 0l1.828125 -1.828125l2.46875 1.84375q1.671875 1.390625 -0.296875 2.046875l-4.828125 0l0 4.375q-2.9375 2.71875 -2.9375 -0.15625l0 -0.21875l-5.3125 0l0 2.34375q0 1.796875 -1.109375 2.75q-0.890625 0.75 -1.8125 0.890625q-1.515625 0.265625 -1.515625 -1.390625q0 -0.09375 -0.109375 -0.109375l-2.1875 -0.515625q-2.1875 -0.875 0.078125 -1.78125l3.25 0q0.46875 0 0.46875 -0.46875l0 -1.71875l-9.375 0l0 -2.0625l9.375 0l0 -1.9375l-13.625 0l0 -2.0625l13.625 0l0 -1.3125l-9.0 0l0 -2.0625l9.0 0l0 -1.5625l-5.0625 0l0 0.5q-2.9375 2.71875 -2.9375 -0.15625l0 -7.21875l2.6875 1.4375l5.3125 0l0 -1.1875l-13.5 0l0 -2.0625l13.5 0l0 -4.125l3.078125 0.515625q3.4375 1.25 -0.140625 2.15625l0 1.453125l8.578125 0l1.828125 -1.828125l2.46875 1.84375q1.671875 1.390625 -0.296875 2.046875l-12.578125 0l0 1.1875zm4.4375 3.375l0 -1.3125l-4.4375 0l0 1.3125l4.4375 0zm-12.4375 -1.3125l0 1.3125l5.0625 0l0 -1.3125l-5.0625 0zm13.3125 10.375l-5.3125 0l0 1.9375l5.3125 0l0 -1.9375zm0 -2.0625l0 -1.3125l-5.3125 0l0 1.3125l5.3125 0zm9.609375 -1.46875q4.0625 -5.171875 6.84375 -16.15625l3.5 1.5q1.546875 2.15625 -1.21875 1.96875q-0.96875 2.8125 -2.203125 5.484375l0.578125 0.265625q1.53125 1.125 -0.171875 1.765625l0 18.078125q-2.9375 2.71875 -2.9375 -0.15625l0 -15.015625q-1.09375 1.6875 -2.9375 3.40625q-3.265625 2.046875 -1.453125 -1.140625zm8.390625 -0.0625q2.40625 -3.921875 3.875 -12.59375l3.234375 0.65625q2.890625 1.28125 -0.421875 2.15625q-0.40625 1.421875 -0.59375 1.9375l3.65625 0l0 -8.25l3.015625 0.53125q2.578125 1.609375 -0.078125 2.0625l0 5.65625l3.203125 0l2.078125 -2.078125l2.84375 2.09375q1.671875 1.390625 -0.296875 2.046875l-7.828125 0l0 6.8125l4.078125 0l2.078125 -2.078125l2.84375 2.09375q1.671875 1.390625 -0.296875 2.046875l-8.703125 0l0 9.625q-2.9375 2.71875 -2.9375 -0.15625l0 -9.46875l-10.0 0l0 -2.0625l10.0 0l0 -6.8125l-4.359375 0q-1.015625 3.40625 -3.78125 6.703125q-1.609375 1.203125 -1.609375 -0.921875z" fill-rule="nonzero"/><path fill="#9900ff" d="m292.26025 533.7725l0 0.71875q-1.625 1.0625 -2.390625 2.078125q-1.0625 1.40625 -1.65625 3.609375q-0.75 2.734375 -0.75 7.640625q0 4.625 0.671875 7.1875q0.6875 2.5625 1.859375 4.140625q0.8125 1.09375 2.265625 1.921875l0 0.78125q-3.765625 -1.265625 -6.390625 -5.171875q-2.609375 -3.890625 -2.609375 -8.953125q0 -5.0 2.609375 -8.84375q2.609375 -3.859375 6.390625 -5.109375zm13.375 17.90625l0.484375 0.375q-1.03125 1.9375 -2.578125 2.890625q-1.53125 0.9375 -3.265625 0.9375q-2.921875 0 -4.671875 -2.203125q-1.75 -2.203125 -1.75 -5.296875q0 -2.984375 1.59375 -5.25q1.921875 -2.734375 5.296875 -2.734375q2.265625 0 3.59375 1.140625q1.34375 1.140625 1.34375 2.546875q0 0.890625 -0.546875 1.421875q-0.53125 0.53125 -1.40625 0.53125q-0.921875 0 -1.53125 -0.609375q-0.59375 -0.609375 -0.734375 -2.171875q-0.09375 -0.984375 -0.453125 -1.375q-0.359375 -0.390625 -0.84375 -0.390625q-0.75 0 -1.28125 0.796875q-0.8125 1.203125 -0.8125 3.6875q0 2.0625 0.65625 3.953125q0.65625 1.875 1.796875 2.796875q0.859375 0.671875 2.03125 0.671875q0.765625 0 1.453125 -0.359375q0.6875 -0.359375 1.625 -1.359375zm8.0 -17.421875l0 18.15625q0 1.546875 0.359375 1.984375q0.359375 0.421875 1.40625 0.484375l0 0.5625l-7.890625 0l0 -0.5625q0.96875 -0.03125 1.4375 -0.5625q0.3125 -0.359375 0.3125 -1.90625l0 -15.125q0 -1.53125 -0.359375 -1.953125q-0.359375 -0.4375 -1.390625 -0.5l0 -0.578125l6.125 0zm6.6875 -0.5q1.015625 0 1.71875 0.71875q0.703125 0.703125 0.703125 1.703125q0 1.0 -0.71875 1.703125q-0.703125 0.703125 -1.703125 0.703125q-1.0 0 -1.703125 -0.703125q-0.703125 -0.703125 -0.703125 -1.703125q0 -1.0 0.703125 -1.703125q0.703125 -0.71875 1.703125 -0.71875zm2.1875 7.078125l0 11.578125q0 1.546875 0.359375 1.984375q0.359375 0.421875 1.40625 0.484375l0 0.5625l-7.890625 0l0 -0.5625q0.96875 -0.03125 1.4375 -0.5625q0.3125 -0.359375 0.3125 -1.90625l0 -8.53125q0 -1.546875 -0.359375 -1.96875q-0.359375 -0.4375 -1.390625 -0.5l0 -0.578125l6.125 0zm15.109375 10.84375l0.484375 0.375q-1.03125 1.9375 -2.578125 2.890625q-1.53125 0.9375 -3.265625 0.9375q-2.921875 0 -4.671875 -2.203125q-1.75 -2.203125 -1.75 -5.296875q0 -2.984375 1.59375 -5.25q1.921875 -2.734375 5.296875 -2.734375q2.265625 0 3.59375 1.140625q1.34375 1.140625 1.34375 2.546875q0 0.890625 -0.546875 1.421875q-0.53125 0.53125 -1.40625 0.53125q-0.921875 0 -1.53125 -0.609375q-0.59375 -0.609375 -0.734375 -2.171875q-0.09375 -0.984375 -0.453125 -1.375q-0.359375 -0.390625 -0.84375 -0.390625q-0.75 0 -1.28125 0.796875q-0.8125 1.203125 -0.8125 3.6875q0 2.0625 0.65625 3.953125q0.65625 1.875 1.796875 2.796875q0.859375 0.671875 2.03125 0.671875q0.765625 0 1.453125 -0.359375q0.6875 -0.359375 1.625 -1.359375zm8.21875 -17.421875l0 13.9375l3.390625 -3.328125q1.046875 -1.015625 1.296875 -1.46875q0.265625 -0.453125 0.265625 -0.875q0 -0.421875 -0.34375 -0.703125q-0.34375 -0.28125 -1.34375 -0.40625l0 -0.578125l6.546875 0l0 0.578125q-0.9375 0.046875 -1.640625 0.453125q-0.703125 0.390625 -2.75 2.390625l-1.59375 1.5625l3.4375 5.03125q2.078125 3.0625 2.46875 3.4375q0.53125 0.53125 1.34375 0.59375l0 0.5625l-7.546875 0l0 -0.5625q0.5 0 0.71875 -0.1875q0.234375 -0.1875 0.234375 -0.40625q0 -0.359375 -0.65625 -1.328125l-2.890625 -4.234375l-0.9375 0.921875l0 2.625q0 1.671875 0.3125 2.09375q0.3125 0.40625 1.28125 0.515625l0 0.5625l-7.546875 0l0 -0.5625q0.921875 -0.09375 1.3125 -0.59375q0.265625 -0.34375 0.265625 -2.015625l0 -14.84375q0 -1.65625 -0.3125 -2.0625q-0.296875 -0.40625 -1.265625 -0.53125l0 -0.578125l5.953125 0zm11.171875 27.59375l0 -0.71875q1.625 -1.078125 2.390625 -2.09375q1.046875 -1.40625 1.65625 -3.59375q0.75 -2.75 0.75 -7.65625q0 -4.625 -0.6875 -7.171875q-0.671875 -2.5625 -1.84375 -4.140625q-0.8125 -1.09375 -2.265625 -1.921875l0 -0.78125q3.765625 1.265625 6.375 5.171875q2.625 3.890625 2.625 8.953125q0 4.984375 -2.625 8.828125q-2.609375 3.859375 -6.375 5.125z" fill-rule="nonzero"/><path fill="#ff00ff" d="m133.729 576.03815q0 -1.609375 -0.8125 -2.40625q-0.921875 -0.9375 -2.53125 -0.9375q-1.609375 0 -2.78125 1.1875q-0.234375 0.21875 0.03125 1.09375q0.765625 2.46875 -1.625 2.46875q-1.78125 0 -1.78125 -1.90625q0 -1.765625 1.3125 -3.09375q1.828125 -1.8125 5.09375 -1.8125q3.140625 0 5.09375 1.9375q1.3125 1.328125 1.3125 3.71875q0 2.140625 -1.3125 3.46875q-0.984375 0.96875 -1.53125 1.015625q0.234375 -0.109375 1.65625 1.296875q1.5625 1.578125 1.5625 3.84375q0 2.515625 -1.4375 3.96875q-2.078125 2.0625 -5.34375 2.0625q-3.640625 0 -5.46875 -1.8125q-1.5625 -1.578125 -1.5625 -3.21875q0 -2.53125 2.03125 -2.53125q1.90625 0 1.90625 2.03125q0 0.703125 -0.609375 1.609375q-0.203125 0.3125 0.296875 0.796875q1.046875 1.0625 2.90625 1.0625q1.734375 0 2.90625 -1.1875q1.0625 -1.046875 1.0625 -2.78125q0 -2.6875 -1.359375 -3.28125q-2.0 -0.875 -3.734375 -0.1875q-1.65625 0 -1.65625 -1.15625q0 -1.625 1.6875 -1.390625q0.890625 0.328125 2.21875 0q0.8125 -0.109375 1.78125 -1.078125q0.6875 -0.671875 0.6875 -2.78125zm9.875 5.25q0 -5.609375 -3.6875 -9.28125q-3.671875 -3.6875 -9.28125 -3.6875q-5.609375 0 -9.28125 3.6875q-3.6875 3.671875 -3.6875 9.28125q0 5.609375 3.6875 9.28125q3.671875 3.6875 9.28125 3.6875q5.609375 0 9.28125 -3.6875q3.6875 -3.671875 3.6875 -9.28125zm2.3125 0q0 6.640625 -4.3125 10.96875q-4.328125 4.3125 -10.96875 4.3125q-6.640625 0 -10.96875 -4.3125q-4.3125 -4.328125 -4.3125 -10.96875q0 -6.640625 4.3125 -10.96875q4.328125 -4.3125 10.96875 -4.3125q6.640625 0 10.96875 4.3125q4.3125 4.328125 4.3125 10.96875z" fill-rule="nonzero"/><path fill="#ff00ff" d="m176.52588 589.2413q5.421875 1.328125 7.921875 3.4375q1.09375 1.09375 1.09375 1.984375q0 1.40625 -1.28125 1.40625q-0.921875 0 -1.84375 -1.078125q-2.40625 -2.28125 -6.21875 -4.0q-2.109375 -1.265625 0.328125 -1.75zm-3.859375 -1.359375l3.0625 0l0 -3.3125l-3.0625 0l0 3.3125zm1.28125 2.65625q2.453125 2.46875 -1.640625 1.8125q-3.484375 2.53125 -8.015625 4.078125q-2.890625 0.40625 -0.796875 -1.6875q4.390625 -2.125 8.34375 -5.8125l2.109375 1.609375zm-11.078125 -23.5q2.578125 1.609375 -0.078125 2.0625l0 4.65625l0.078125 0l1.5625 -1.578125l2.234375 1.59375q1.671875 1.390625 -0.296875 2.046875l-3.578125 0l0 3.96875l3.015625 -1.3125q2.03125 0.40625 0.859375 1.578125l-3.875 2.46875l0 10.515625q0 1.671875 -1.078125 2.609375q-0.6875 0.671875 -1.703125 0.671875q-1.15625 0 -1.15625 -1.15625q0 -0.15625 -0.265625 -0.25l-1.671875 -0.375q-1.75 -0.875 0.0625 -1.78125l2.65625 0q0.21875 0 0.21875 -0.21875l0 -8.453125l-1.265625 0.796875q0.4375 3.75 -2.109375 0.921875l-1.6875 -2.71875l5.0625 -2.0l0 -5.265625l-4.375 0l0 -2.0625l4.375 0l0 -7.25l3.015625 0.53125zm9.875 12.75q2.578125 1.609375 -0.078125 2.0625l0 0.65625l3.0625 0l0 -3.25l3.015625 0.53125q2.578125 1.609375 -0.078125 2.0625l0 0.65625l1.453125 0l1.828125 -1.828125l2.46875 1.84375q1.671875 1.390625 -0.296875 2.046875l-5.453125 0l0 3.3125l2.703125 0l1.828125 -1.828125l2.46875 1.84375q1.671875 1.390625 -0.296875 2.046875l-21.515625 0l0 -2.0625l5.875 0l0 -3.3125l-5.0 0l0 -2.0625l5.0 0l0 -3.25l3.015625 0.53125zm-3.828125 -12.40625l2.828125 0l1.046875 -1.0625l1.828125 1.171875q2.71875 1.734375 -0.078125 2.328125l0 4.0q-2.9375 2.71875 -2.9375 -0.15625l0.03125 0l-2.46875 0.03125l0 2.96875q-0.15625 0 -0.15625 -0.15625l3.0 0q0.59375 0 0.78125 -0.375l0.921875 -2.09375q0.984375 -0.984375 1.609375 0.28125l-0.421875 1.984375q-0.015625 0.0625 0.359375 0.328125q1.203125 0.890625 -0.109375 1.9375q-1.0625 0.75 -2.265625 0.75l-4.5 0q-2.15625 0 -2.15625 -2.15625l0 -11.21875l2.6875 1.4375zm15.078125 0.109375q2.71875 1.734375 -0.078125 2.328125l0 4.0q-2.9375 2.71875 -2.9375 -0.15625l0.03125 0l-3.21875 0.03125l0 2.84375q-0.15625 0 -0.15625 -0.15625l4.5 0q0.578125 0 0.890625 -0.71875l0.796875 -2.0q1.0 -0.984375 1.625 0.296875l-0.546875 2.359375q-0.046875 -0.015625 0.390625 0.125q1.328125 0.65625 0.1875 1.8125q-0.953125 0.9375 -2.46875 0.9375l-6.0 0q-2.15625 0 -2.15625 -2.15625l0 -10.71875l2.65625 1.0625l3.609375 0l1.046875 -1.0625l1.828125 1.171875zm-14.828125 4.140625l2.4375 0l0 -2.1875l-2.4375 0l0 2.1875zm8.625 0l3.1875 0l0 -2.1875l-3.1875 0l0 2.1875zm18.453125 14.9375q-4.171875 3.3125 -7.421875 4.34375q-3.875 1.109375 -0.6875 -1.546875q5.546875 -3.203125 7.875 -6.546875l0.03125 0l0 0.625q-2.9375 2.71875 -2.9375 -0.15625l0 -10.34375l2.546875 1.015625l5.484375 -1.90625l1.6875 1.375q2.59375 2.578125 -1.828125 1.65625l-4.953125 0.765625l0 1.40625l3.453125 0l1.5625 -1.578125l2.234375 1.59375q1.671875 1.390625 -0.296875 2.046875l-6.953125 0l0 1.4375l12.9375 0l0 -1.4375l-4.875 0l0 -2.0625l4.875 0l0 -1.3125l-5.375 0l0 -2.0625l5.453125 0l0.9375 -1.25l2.40625 1.75q2.171875 1.5625 -0.484375 1.96875l0 6.59375q-2.9375 2.71875 -2.9375 -0.15625l0.03125 0l-7.421875 0.03125q1.515625 1.359375 -2.3125 0.90625q-0.921875 1.03125 -1.0625 0.9375l14.90625 -0.15625l1.265625 -1.265625l1.984375 1.96875q1.6875 1.984375 -0.3125 1.984375q0.109375 6.484375 -3.734375 8.546875q-2.390625 1.28125 -2.84375 -0.75q0 -0.203125 -0.25 -0.359375l-1.625 -0.625q-2.71875 -1.625 0.4375 -1.625l2.78125 0.25q0.6875 0.078125 1.21875 -1.0q0.9375 -1.984375 0.828125 -5.0625l-16.625 0zm-3.390625 -14.625q0.078125 0.828125 -0.515625 2.15625q-1.6875 2.6875 -3.5 1.078125q-0.59375 -1.390625 0.5625 -2.703125q1.203125 -1.3125 1.203125 -2.9375q0 -3.046875 1.75 -0.421875q0.3125 0.9375 0.03125 1.046875l8.84375 -0.28125l0 -4.03125l3.09375 0.6875q3.421875 1.234375 -0.15625 2.140625l0 1.203125l9.03125 0l1.203125 -1.5l2.625 2.015625q3.078125 2.296875 -0.5625 2.296875q-0.71875 -0.09375 -1.390625 0.578125l-1.671875 1.421875q-2.34375 1.40625 -1.375 -1.03125l0.734375 -1.71875l-19.90625 0zm13.6875 18.75q-0.546875 -1.09375 -1.9375 -2.140625q-2.09375 -1.671875 0.75 -1.671875q1.4375 0.421875 2.921875 1.375q2.90625 2.421875 1.15625 3.78125q-1.65625 1.453125 -2.890625 -1.34375zm-5.265625 -3.140625q2.515625 1.40625 3.234375 3.40625q0.703125 2.296875 -1.0 2.71875q-1.65625 0.21875 -2.015625 -1.625q-0.46875 -1.96875 -1.40625 -3.140625q-1.296875 -2.1875 1.1875 -1.359375zm-3.734375 0.703125q1.71875 2.0 2.0 3.8125q0.328125 2.34375 -1.265625 2.734375q-2.109375 0.421875 -1.921875 -2.21875q0.234375 -1.265625 -0.34375 -3.21875q-0.75 -2.25 1.53125 -1.109375zm-3.296875 0.921875q0.59375 2.171875 -0.53125 4.546875q-1.359375 2.203125 -3.265625 1.0625q-1.078125 -1.296875 -0.03125 -2.34375q1.625 -1.609375 1.953125 -3.0625q0.71875 -2.515625 1.875 -0.203125zm42.046875 -15.796875l4.390625 0l1.0625 -1.359375l2.53125 1.734375q2.28125 1.71875 -0.609375 2.109375l0 2.953125q-2.9375 2.71875 -2.9375 -0.15625l0.15625 0l-4.59375 0.15625l0 1.5625l5.265625 0l1.0625 -1.359375l2.53125 1.734375q2.28125 1.71875 -0.609375 2.109375l0 0.890625l0.828125 0l1.828125 -1.828125l2.46875 1.84375q1.671875 1.390625 -0.296875 2.046875l-4.828125 0l0 4.375q-2.9375 2.71875 -2.9375 -0.15625l0 -0.21875l-5.3125 0l0 2.34375q0 1.796875 -1.109375 2.75q-0.890625 0.75 -1.8125 0.890625q-1.515625 0.265625 -1.515625 -1.390625q0 -0.09375 -0.109375 -0.109375l-2.1875 -0.515625q-2.1875 -0.875 0.078125 -1.78125l3.25 0q0.46875 0 0.46875 -0.46875l0 -1.71875l-9.375 0l0 -2.0625l9.375 0l0 -1.9375l-13.625 0l0 -2.0625l13.625 0l0 -1.3125l-9.0 0l0 -2.0625l9.0 0l0 -1.5625l-5.0625 0l0 0.5q-2.9375 2.71875 -2.9375 -0.15625l0 -7.21875l2.6875 1.4375l5.3125 0l0 -1.1875l-13.5 0l0 -2.0625l13.5 0l0 -4.125l3.078125 0.515625q3.4375 1.25 -0.140625 2.15625l0 1.453125l8.578125 0l1.828125 -1.828125l2.46875 1.84375q1.671875 1.390625 -0.296875 2.046875l-12.578125 0l0 1.1875zm4.4375 3.375l0 -1.3125l-4.4375 0l0 1.3125l4.4375 0zm-12.4375 -1.3125l0 1.3125l5.0625 0l0 -1.3125l-5.0625 0zm13.3125 10.375l-5.3125 0l0 1.9375l5.3125 0l0 -1.9375zm0 -2.0625l0 -1.3125l-5.3125 0l0 1.3125l5.3125 0zm9.609375 -1.46875q4.0625 -5.171875 6.84375 -16.15625l3.5 1.5q1.546875 2.15625 -1.21875 1.96875q-0.96875 2.8125 -2.203125 5.484375l0.578125 0.265625q1.53125 1.125 -0.171875 1.765625l0 18.078125q-2.9375 2.71875 -2.9375 -0.15625l0 -15.015625q-1.09375 1.6875 -2.9375 3.40625q-3.265625 2.046875 -1.453125 -1.140625zm8.390625 -0.0625q2.40625 -3.921875 3.875 -12.59375l3.234375 0.65625q2.890625 1.28125 -0.421875 2.15625q-0.40625 1.421875 -0.59375 1.9375l3.65625 0l0 -8.25l3.015625 0.53125q2.578125 1.609375 -0.078125 2.0625l0 5.65625l3.203125 0l2.078125 -2.078125l2.84375 2.09375q1.671875 1.390625 -0.296875 2.046875l-7.828125 0l0 6.8125l4.078125 0l2.078125 -2.078125l2.84375 2.09375q1.671875 1.390625 -0.296875 2.046875l-8.703125 0l0 9.625q-2.9375 2.71875 -2.9375 -0.15625l0 -9.46875l-10.0 0l0 -2.0625l10.0 0l0 -6.8125l-4.359375 0q-1.015625 3.40625 -3.78125 6.703125q-1.609375 1.203125 -1.609375 -0.921875zm47.78125 -2.46875q0.625 0 0.734375 -0.390625l0.640625 -2.4375q1.078125 -2.140625 1.65625 0.15625l0 2.453125q0 0.0625 0.234375 0.15625q1.984375 0.984375 0.125 2.375q-0.671875 0.5 -2.640625 0.5l-10.125 0q-2.15625 0 -2.15625 -2.15625l0 -2.0625l-6.390625 0.234375l-0.34375 -2.046875l6.734375 -0.25l0 -1.84375l-7.0625 0l0 7.84375q0 4.5 -1.171875 7.5q-1.546875 3.609375 -3.734375 6.0625q-2.265625 0.75 -1.453125 -1.234375q1.84375 -2.859375 2.8125 -6.125q0.734375 -3.265625 0.609375 -6.9375l0 -10.765625l2.828125 1.59375l7.421875 0l0 -6.125l2.171875 0.390625q4.390625 1.03125 0.765625 2.234375l0 0.5l5.578125 0l1.8125 -1.828125l2.609375 1.84375q1.671875 1.390625 -0.296875 2.046875l-9.703125 0l0 0.9375l8.671875 0l1.359375 -1.5l2.625 2.15625q3.25 3.015625 -1.171875 2.265625q-0.34375 -0.046875 -0.734375 0.5l-1.28125 1.671875q-1.78125 1.765625 -1.78125 -0.8125l0.828125 -2.21875l-8.765625 0l0 1.515625l4.375 -0.3125l1.328125 -1.765625l2.40625 1.75q2.015625 1.453125 -0.421875 2.0625l-7.6875 0.46875l0 1.75q-0.15625 0 -0.15625 -0.15625l8.75 0zm-2.78125 5.0625l-1.8125 0l0 2.640625q-0.28125 2.125 -1.6875 3.65625q-1.15625 1.171875 -1.3125 1.28125q0.234375 0.109375 4.84375 0.109375l8.75 0.65625q-0.34375 0.78125 -0.765625 2.15625l-7.234375 0q-8.296875 0 -11.0 -3.140625q-1.0625 1.234375 -3.140625 2.65625q-1.953125 1.171875 -4.25 1.984375q-2.3125 0 -0.625 -1.6875q4.09375 -2.109375 6.328125 -5.0q-0.78125 -1.171875 -1.0625 -2.0q-0.734375 1.328125 -3.40625 3.59375q-2.890625 1.171875 -1.109375 -1.21875q3.53125 -4.125 4.625 -10.578125l2.21875 0.734375q5.078125 1.609375 0.140625 2.34375l0 0l1.609375 0l1.125 -1.28125l1.859375 1.703125q1.90625 1.640625 -0.4375 2.0625q-1.03125 3.109375 -2.4375 4.9375q0.25 0.34375 1.828125 1.078125q0.96875 -0.875 1.640625 -2.125q0.5625 -1.34375 0.5625 -2.84375l0 -4.875l2.546875 1.09375l2.5625 0l0.953125 -1.125l1.59375 1.25q2.828125 1.796875 0.03125 2.21875l0 4.0625q-0.15625 0 -0.15625 -0.15625l2.25 0q0.59375 0 0.734375 -0.625l0.640625 -2.40625q0.875 -2.640625 1.78125 0.078125l0 2.359375q0 0.4375 0.1875 0.515625q2.390625 0.78125 0.140625 2.28125q-0.90625 0.609375 -2.984375 0.609375l-3.375 0q-2.15625 0 -2.15625 -2.15625l0 -4.84375zm-10.65625 3.46875q0.59375 -0.90625 1.296875 -3.21875l-2.046875 0l-0.359375 0.859375q0.75 1.90625 1.109375 2.359375zm43.21875 -0.59375l0 4.8125l3.703125 0l2.078125 -2.078125l2.84375 2.09375q1.671875 1.390625 -0.296875 2.046875l-22.140625 0l0 -2.0625l10.875 0l0 -4.8125l-6.25 0l0 -2.0625l6.25 0l0 -3.8125l-3.5625 0l0 1.375q-2.9375 2.71875 -2.9375 -0.15625l0 -15.65625l2.671875 1.25l10.15625 0l0.9375 -1.25l2.296875 1.640625q1.8125 1.515625 -0.25 1.921875l0 11.5q-2.9375 2.71875 -2.9375 -0.15625l0 -0.46875l-3.4375 0l0 3.8125l3.078125 0l1.828125 -1.828125l2.46875 1.84375q1.671875 1.390625 -0.296875 2.046875l-7.078125 0zm-14.125 -15.125l0 5.6875l0.203125 0l1.828125 -1.828125l2.46875 1.84375q1.671875 1.390625 -0.296875 2.046875l-4.203125 0l0 6.140625l5.46875 -2.078125q2.0625 0 0.8125 1.671875l-10.109375 5.171875q-0.578125 3.15625 -2.21875 0.953125l-2.1875 -2.84375l5.296875 -1.765625l0 -7.25l-4.125 0l0 -2.0625l4.125 0l0 -5.6875l-4.625 0l0 -2.0625l8.140625 0l1.828125 -1.828125l2.46875 1.84375q1.671875 1.390625 -0.296875 2.046875l-4.578125 0zm17.5625 -1.875l-3.4375 0l0 3.6875l3.4375 0l0 -3.6875zm-3.4375 5.75l0 3.3125l3.4375 0l0 -3.3125l-3.4375 0zm-6.5 -5.75l0 3.6875l3.5625 0l0 -3.6875l-3.5625 0zm0 9.0625l3.5625 0l0 -3.3125l-3.5625 0l0 3.3125zm16.765625 8.71875q3.71875 -5.46875 4.984375 -10.40625l-4.8125 0l0 -2.0625l5.0 0l0 -4.375q-2.078125 0.546875 -4.609375 0.953125q-2.171875 -0.4375 -0.40625 -1.765625q6.28125 -1.765625 10.484375 -4.34375l2.140625 1.828125q2.078125 2.09375 -1.875 1.65625q-1.765625 0.578125 -2.796875 0.84375l0 5.203125l0.703125 0l1.828125 -1.828125l2.46875 1.84375q1.671875 1.390625 -0.296875 2.046875l-4.703125 0l0 2.859375q4.375 1.375 4.375 3.359375q0 1.53125 -1.28125 1.53125q-1.03125 0 -1.5625 -1.078125q-0.890625 -1.328125 -1.53125 -1.703125l0 12.03125q-2.9375 2.71875 -2.9375 -0.15625l0 -9.671875q-0.546875 1.171875 -3.703125 4.34375q-2.390625 1.1875 -1.46875 -1.109375zm21.109375 3.53125l4.328125 0l2.078125 -2.078125l2.84375 2.09375q1.671875 1.390625 -0.296875 2.046875l-20.765625 0l0 -2.0625l8.875 0l0 -3.6875l-6.5 0l0 -2.0625l6.5 0l0 -3.3125l-6.875 0l0 -2.0625l13.390625 0l1.828125 -1.828125l2.46875 1.84375q1.671875 1.390625 -0.296875 2.046875l-7.578125 0l0 3.3125l2.453125 0l1.828125 -1.828125l2.46875 1.84375q1.671875 1.390625 -0.296875 2.046875l-6.453125 0l0 3.6875zm2.515625 -22.75l0.9375 -1.25l2.296875 1.640625q1.8125 1.515625 -0.25 1.921875l0 6.75q-2.9375 2.71875 -2.9375 -0.15625l0 -0.34375l-7.1875 0l0 1.25q-2.9375 2.71875 -2.9375 -0.15625l0 -11.09375l2.6875 1.4375l7.390625 0zm0.046875 2.0625l-7.1875 0l0 4.4375l7.1875 0l0 -4.4375zm25.28125 10.171875q-0.53125 -1.625 -3.71875 -3.265625q-2.125 -1.59375 0.53125 -1.59375q3.09375 0.53125 4.46875 1.625l1.8125 -2.1875l-12.25 0l0 -2.0625l13.515625 0l0.953125 -0.96875l2.59375 1.984375q2.625 2.046875 -1.15625 2.046875q-0.640625 0 -1.09375 0.359375l-2.890625 2.125q0.265625 0.171875 0.265625 1.609375q0 1.21875 -0.578125 0.984375l6.53125 -0.515625l0.96875 -0.96875l2.828125 2.234375q2.625 2.046875 -0.65625 2.046875q-0.9375 0 -1.40625 0.28125l-2.921875 1.78125q-2.484375 0.984375 -1.09375 -1.328125l1.484375 -1.984375l-5.53125 0l0 8.71875q0 1.515625 -0.9375 2.46875q-0.828125 0.8125 -1.84375 0.8125q-1.15625 0 -1.15625 -1.40625q0 -0.0625 -0.203125 -0.109375l-1.75 -0.265625q-2.1875 -1.3125 0.171875 -1.78125l2.5625 0q0.21875 0 0.21875 -0.21875l0 -8.21875l-10.75 0l0 -2.0625l11.859375 0.53125q-0.484375 0.375 -0.828125 -0.671875zm-10.59375 -9.171875l0 8.96875q0 7.984375 -4.578125 13.359375q-2.859375 2.03125 -1.546875 -1.015625q3.1875 -5.765625 3.1875 -11.96875l0 -12.84375l2.6875 1.4375l7.9375 0l0 -4.375l2.140625 0.390625q4.671875 0.8125 0.796875 2.109375l0 1.875l7.703125 0l2.078125 -2.078125l2.84375 2.09375q1.671875 1.390625 -0.296875 2.046875l-22.953125 0z" fill-rule="nonzero"/><path fill="#ebddc3" d="m448.4252 315.32285l125.275604 0l0 40.11023l-125.275604 0z" fill-rule="evenodd"/><path fill="#efe3cf" d="m441.74014 308.6378l138.64566 0l-6.6849976 6.6850586l-125.275604 0z" fill-rule="evenodd"/><path fill="#bbb09b" d="m441.74014 362.1181l6.6850586 -6.685028l125.275604 0l6.6849976 6.685028z" fill-rule="evenodd"/><path fill="#f3eadb" d="m441.74014 308.6378l6.6850586 6.6850586l0 40.11023l-6.6850586 6.685028z" fill-rule="evenodd"/><path fill="#8c8474" d="m580.3858 308.6378l0 53.480316l-6.6849976 -6.685028l0 -40.11023z" fill-rule="evenodd"/><path fill="#000000" fill-opacity="0.0" d="m441.74014 308.6378l138.64566 0l0 53.480316l-138.64566 0zm6.6850586 6.6850586l125.275604 0l0 40.11023l-125.275604 0zm-6.6850586 -6.6850586l6.6850586 6.6850586m-6.6850586 46.795258l6.6850586 -6.685028m131.9606 -46.795288l-6.6849976 6.6850586m6.6849976 46.795258l-6.6849976 -6.685028" fill-rule="evenodd"/><path stroke="#775f55" stroke-width="1.0" stroke-linejoin="round" stroke-linecap="butt" d="m441.74014 308.6378l138.64566 0l0 53.480316l-138.64566 0zm6.6850586 6.6850586l125.275604 0l0 40.11023l-125.275604 0zm-6.6850586 -6.6850586l6.6850586 6.6850586m-6.6850586 46.795258l6.6850586 -6.685028m131.9606 -46.795288l-6.6849976 6.6850586m6.6849976 46.795258l-6.6849976 -6.685028" fill-rule="evenodd"/><path fill="#000000" d="m500.438 333.22296l0 -11.75l2.125 0.375q1.0 0.625 -0.5 0.875l0 10.5l3.125 0l1.875 -1.875l2.375 1.75q0.75 0.625 0 0.875l-7.375 0l0 14.625q-1.625 1.5 -1.625 0.125l0 -14.75l-6.375 0l0 -0.75l6.375 0zm-10.375 6.125l0.75 -0.875l1.625 1.125q0.75 0.625 -0.5 0.875l0 6.875q-1.625 1.5 -1.625 0.125l0 -0.75l-5.5 0l0 2.25q-1.625 1.5 -1.625 0.125l0 -10.625l1.875 0.875l5.0 0zm-7.75 -4.25l7.25 0l1.625 -1.625l2.0 1.5q0.75 0.625 0 0.875l-10.875 0l0 -0.75zm0 -3.625l6.875 0l1.625 -1.625l2.0 1.5q0.75 0.625 0 0.875l-10.5 0l0 -0.75zm-1.375 -3.875l9.375 0l1.875 -1.875l2.375 1.75q0.75 0.625 0 0.875l-13.625 0l0 -0.75zm1.5 -4.0l6.125 0l1.625 -1.625l2.0 1.5q0.75 0.625 0 0.875l-9.75 0l0 -0.75zm2.375 16.5l0 5.875l5.5 0l0 -5.875l-5.5 0zm28.0 -10.375q3.125 -3.25 5.0 -9.375l2.125 1.125q0.625 0.5 -0.75 0.625q-0.5 0.875 -1.375 2.125l5.375 0l1.625 -1.625l2.0 1.5q0.75 0.625 0 0.875l-6.625 0q2.5 1.25 2.5 2.75q0 1.0 -0.625 1.0q-0.375 0 -0.5 -0.25q-0.875 -2.375 -2.0 -3.5l-2.125 0q-1.875 3.25 -4.25 5.0q-0.5 0.25 -0.375 -0.25zm18.125 -7.375q-0.625 1.125 -1.125 1.875l6.375 0l1.625 -1.625l2.0 1.5q0.75 0.625 0 0.875l-8.5 0q2.25 1.375 2.25 2.875q0 1.125 -0.75 1.125q-0.375 0 -0.625 -0.625q-0.25 -1.75 -1.5 -3.375l-1.25 0q-1.75 2.75 -3.375 3.875q-0.5 0.375 -0.375 -0.25q2.625 -3.375 3.875 -8.0l2.25 1.125q0.75 0.625 -0.875 0.625zm-11.0 17.375l0 1.375q-1.625 1.5 -1.625 0.125l0 -12.75l1.875 1.25l14.0 0l0.75 -1.0l1.75 1.25q0.75 0.625 -0.5 0.875l0 9.75q-1.625 1.5 -1.625 0.125l0 -1.0l-2.75 0l0 3.25l4.5 0l1.875 -1.875l2.375 1.75q0.75 0.625 0 0.875l-8.75 0l0 5.5q-1.625 1.5 -1.625 0.125l0 -5.625l-5.875 0q-0.75 5.125 -10.5 6.375q-0.5 -0.25 0 -0.5q8.25 -2.0 8.875 -5.875l-10.0 0l0 -0.75l10.125 0q0.25 -1.0 0.375 -3.25l-3.25 0zm4.875 0q-0.125 2.0 -0.375 3.25l5.75 0l0 -3.25l-5.375 0zm-4.875 -6.875l14.625 0l0 -2.375l-14.625 0l0 2.375zm0 3.125l14.625 0l0 -2.375l-14.625 0l0 2.375zm14.625 3.0l0 -2.25l-14.625 0l0 2.25l14.625 0z" fill-rule="nonzero"/></g></svg>