<?xml version="1.0" encoding="UTF-8" standalone="no"?>
<!DOCTYPE svg PUBLIC "-//W3C//DTD SVG 1.1//EN" "http://www.w3.org/Graphics/SVG/1.1/DTD/svg11.dtd">
<svg version="1.1" xmlns="http://www.w3.org/2000/svg" xmlns:xl="http://www.w3.org/1999/xlink" xmlns:dc="http://purl.org/dc/elements/1.1/" viewBox="884.5 766.5 533 227" width="533" height="227">
  <defs/>
  <metadata> Produced by OmniGraffle 7.22.4\n2023-12-14 03:25:38 +0000</metadata>
  <g id="Canvas_1" fill="none" stroke="none" stroke-dasharray="none" stroke-opacity="1" fill-opacity="1">
    <title>Canvas 1</title>
    <g id="Canvas_1_Layer_1">
      <title>Layer 1</title>
      <g id="Graphic_49">
        <rect x="885" y="767" width="532" height="226" fill="#ffffc0"/>
        <rect x="885" y="767" width="532" height="226" stroke="gray" stroke-linecap="round" stroke-linejoin="round" stroke-width="1"/>
      </g>
      <g id="Graphic_50">
        <text transform="translate(1386 959)" fill="black">
          <tspan font-family="Helvetica Neue" font-size="16" fill="black" x="0" y="15">S</tspan>
        </text>
      </g>
      <g id="Graphic_51">
        <circle cx="1077" cy="890" r="87.0001390174649" fill="#ffffc0"/>
        <circle cx="1077" cy="890" r="87.0001390174649" stroke="gray" stroke-linecap="round" stroke-linejoin="round" stroke-width="1"/>
        <text transform="translate(1012.4 880.776)" fill="black">
          <tspan font-family="Helvetica Neue" font-size="16" fill="black" x="59.416" y="15">A</tspan>
        </text>
      </g>
      <g id="Graphic_52">
        <circle cx="1197" cy="890" r="87.0001390174649" fill="white"/>
        <circle cx="1197" cy="890" r="87.0001390174649" stroke="gray" stroke-linecap="round" stroke-linejoin="round" stroke-width="1"/>
        <text transform="translate(1132.4 880.776)" fill="black">
          <tspan font-family="Helvetica Neue" font-size="16" fill="black" x="59.12" y="15">B</tspan>
        </text>
      </g>
      <g id="Graphic_53">
        <path d="M 1137.13 827.1294 C 1136.6194 827.6161 1136.1133 828.1103 1135.6118 828.6118 C 1101.636 862.5874 1101.636 917.6726 1135.6118 951.6482 C 1136.1133 952.1497 1136.6194 952.6439 1137.13 953.1306 C 1137.6406 952.6439 1138.1467 952.1497 1138.6482 951.6482 C 1172.624 917.6726 1172.624 862.5874 1138.6482 828.6118 C 1138.1467 828.1103 1137.6406 827.6161 1137.13 827.1294 Z" fill="#ffffc0"/>
        <path d="M 1137.13 827.1294 C 1136.6194 827.6161 1136.1133 828.1103 1135.6118 828.6118 C 1101.636 862.5874 1101.636 917.6726 1135.6118 951.6482 C 1136.1133 952.1497 1136.6194 952.6439 1137.13 953.1306 C 1137.6406 952.6439 1138.1467 952.1497 1138.6482 951.6482 C 1172.624 917.6726 1172.624 862.5874 1138.6482 828.6118 C 1138.1467 828.1103 1137.6406 827.6161 1137.13 827.1294 Z" stroke="gray" stroke-linecap="round" stroke-linejoin="round" stroke-width="1"/>
        <text transform="translate(1120.53 871.682)" fill="black">
          <tspan font-family="Helvetica Neue" font-size="16" fill="black" x="3.4160347" y="15">A </tspan>
          <tspan font-family="Helvetica Neue" font-style="italic" font-size="16" fill="black" y="15">U</tspan>
          <tspan font-family="Helvetica Neue" font-size="16" fill="black" y="15"> </tspan>
          <tspan font-family="Helvetica Neue" font-size="16" fill="black" x="11.120035" y="33.448">B</tspan>
        </text>
      </g>
    </g>
  </g>
</svg>
