<svg xmlns="http://www.w3.org/2000/svg" xmlns:xlink="http://www.w3.org/1999/xlink" version="1.1" class="marks" width="580" height="433" viewBox="0 0 580 433"><rect width="580" height="433" fill="white"/><g fill="none" stroke-miterlimit="10" transform="translate(53,10)"><g class="mark-group role-frame root" role="graphics-object" aria-roledescription="group mark container"><g transform="translate(0,0)"><path class="background" aria-hidden="true" d="M0.5,0.5h400v300h-400Z" stroke="#ddd"/><g><g class="mark-group role-axis" aria-hidden="true"><g transform="translate(0.5,0.5)"><path class="background" aria-hidden="true" d="M0,0h0v0h0Z" pointer-events="none"/><g><g class="mark-rule role-axis-grid" pointer-events="none"><line transform="translate(0,300)" x2="400" y2="0" stroke="#ddd" stroke-width="1" opacity="1"/><line transform="translate(0,270)" x2="400" y2="0" stroke="#ddd" stroke-width="1" opacity="1"/><line transform="translate(0,240)" x2="400" y2="0" stroke="#ddd" stroke-width="1" opacity="1"/><line transform="translate(0,210)" x2="400" y2="0" stroke="#ddd" stroke-width="1" opacity="1"/><line transform="translate(0,180)" x2="400" y2="0" stroke="#ddd" stroke-width="1" opacity="1"/><line transform="translate(0,150)" x2="400" y2="0" stroke="#ddd" stroke-width="1" opacity="1"/><line transform="translate(0,120)" x2="400" y2="0" stroke="#ddd" stroke-width="1" opacity="1"/><line transform="translate(0,90)" x2="400" y2="0" stroke="#ddd" stroke-width="1" opacity="1"/><line transform="translate(0,60)" x2="400" y2="0" stroke="#ddd" stroke-width="1" opacity="1"/><line transform="translate(0,30)" x2="400" y2="0" stroke="#ddd" stroke-width="1" opacity="1"/><line transform="translate(0,0)" x2="400" y2="0" stroke="#ddd" stroke-width="1" opacity="1"/></g></g><path class="foreground" aria-hidden="true" d="" pointer-events="none" display="none"/></g></g><g class="mark-group role-axis" role="graphics-symbol" aria-roledescription="axis" aria-label="X-axis titled 'Income Group' for a discrete scale with 20 values: (-inf, 18985.5], (18985.5, 24117.5], (24117.5, 28427], (28427, 32011], (32011, 35303], ending with (84130, inf]"><g transform="translate(0.5,300.5)"><path class="background" aria-hidden="true" d="M0,0h0v0h0Z" pointer-events="none"/><g><g class="mark-rule role-axis-tick" pointer-events="none"><line transform="translate(10,0)" x2="0" y2="5" stroke="#888" stroke-width="1" opacity="1"/><line transform="translate(30,0)" x2="0" y2="5" stroke="#888" stroke-width="1" opacity="1"/><line transform="translate(50,0)" x2="0" y2="5" stroke="#888" stroke-width="1" opacity="1"/><line transform="translate(70,0)" x2="0" y2="5" stroke="#888" stroke-width="1" opacity="1"/><line transform="translate(90,0)" x2="0" y2="5" stroke="#888" stroke-width="1" opacity="1"/><line transform="translate(110,0)" x2="0" y2="5" stroke="#888" stroke-width="1" opacity="1"/><line transform="translate(130,0)" x2="0" y2="5" stroke="#888" stroke-width="1" opacity="1"/><line transform="translate(150,0)" x2="0" y2="5" stroke="#888" stroke-width="1" opacity="1"/><line transform="translate(170,0)" x2="0" y2="5" stroke="#888" stroke-width="1" opacity="1"/><line transform="translate(190,0)" x2="0" y2="5" stroke="#888" stroke-width="1" opacity="1"/><line transform="translate(210,0)" x2="0" y2="5" stroke="#888" stroke-width="1" opacity="1"/><line transform="translate(230,0)" x2="0" y2="5" stroke="#888" stroke-width="1" opacity="1"/><line transform="translate(250,0)" x2="0" y2="5" stroke="#888" stroke-width="1" opacity="1"/><line transform="translate(270,0)" x2="0" y2="5" stroke="#888" stroke-width="1" opacity="1"/><line transform="translate(290,0)" x2="0" y2="5" stroke="#888" stroke-width="1" opacity="1"/><line transform="translate(310,0)" x2="0" y2="5" stroke="#888" stroke-width="1" opacity="1"/><line transform="translate(330,0)" x2="0" y2="5" stroke="#888" stroke-width="1" opacity="1"/><line transform="translate(350,0)" x2="0" y2="5" stroke="#888" stroke-width="1" opacity="1"/><line transform="translate(370,0)" x2="0" y2="5" stroke="#888" stroke-width="1" opacity="1"/><line transform="translate(390,0)" x2="0" y2="5" stroke="#888" stroke-width="1" opacity="1"/></g><g class="mark-text role-axis-label" pointer-events="none"><text text-anchor="end" transform="translate(9.5,7) rotate(270) translate(0,3)" font-family="sans-serif" font-size="10px" fill="#000" opacity="1">(-inf, 18985.5]</text><text text-anchor="end" transform="translate(29.5,7) rotate(270) translate(0,3)" font-family="sans-serif" font-size="10px" fill="#000" opacity="1">(18985.5, 24117.5]</text><text text-anchor="end" transform="translate(49.5,7) rotate(270) translate(0,3)" font-family="sans-serif" font-size="10px" fill="#000" opacity="1">(24117.5, 28427]</text><text text-anchor="end" transform="translate(69.5,7) rotate(270) translate(0,3)" font-family="sans-serif" font-size="10px" fill="#000" opacity="1">(28427, 32011]</text><text text-anchor="end" transform="translate(89.5,7) rotate(270) translate(0,3)" font-family="sans-serif" font-size="10px" fill="#000" opacity="1">(32011, 35303]</text><text text-anchor="end" transform="translate(109.5,7) rotate(270) translate(0,3)" font-family="sans-serif" font-size="10px" fill="#000" opacity="1">(35303, 38198.5]</text><text text-anchor="end" transform="translate(129.5,7) rotate(270) translate(0,3)" font-family="sans-serif" font-size="10px" fill="#000" opacity="1">(38198.5, 41417.5]</text><text text-anchor="end" transform="translate(149.5,7) rotate(270) translate(0,3)" font-family="sans-serif" font-size="10px" fill="#000" opacity="1">(41417.5, 44529]</text><text text-anchor="end" transform="translate(169.5,7) rotate(270) translate(0,3)" font-family="sans-serif" font-size="10px" fill="#000" opacity="1">(44529, 47947.5]</text><text text-anchor="end" transform="translate(189.5,7) rotate(270) translate(0,3)" font-family="sans-serif" font-size="10px" fill="#000" opacity="1">(47947.5, 51381.5]</text><text text-anchor="end" transform="translate(209.5,7) rotate(270) translate(0,3)" font-family="sans-serif" font-size="10px" fill="#000" opacity="1">(51381.5, 55001.5]</text><text text-anchor="end" transform="translate(229.5,7) rotate(270) translate(0,3)" font-family="sans-serif" font-size="10px" fill="#000" opacity="1">(55001.5, 58482]</text><text text-anchor="end" transform="translate(249.5,7) rotate(270) translate(0,3)" font-family="sans-serif" font-size="10px" fill="#000" opacity="1">(58482, 62060.25]</text><text text-anchor="end" transform="translate(269.5,7) rotate(270) translate(0,3)" font-family="sans-serif" font-size="10px" fill="#000" opacity="1">(62060.25, 65247.5]</text><text text-anchor="end" transform="translate(289.5,7) rotate(270) translate(0,3)" font-family="sans-serif" font-size="10px" fill="#000" opacity="1">(65247.5, 68522]</text><text text-anchor="end" transform="translate(309.5,7) rotate(270) translate(0,3)" font-family="sans-serif" font-size="10px" fill="#000" opacity="1">(68522, 71819]</text><text text-anchor="end" transform="translate(329.5,7) rotate(270) translate(0,3)" font-family="sans-serif" font-size="10px" fill="#000" opacity="1">(71819, 75744.75]</text><text text-anchor="end" transform="translate(349.5,7) rotate(270) translate(0,3)" font-family="sans-serif" font-size="10px" fill="#000" opacity="1">(75744.75, 79844]</text><text text-anchor="end" transform="translate(369.5,7) rotate(270) translate(0,3)" font-family="sans-serif" font-size="10px" fill="#000" opacity="1">(79844, 84130]</text><text text-anchor="end" transform="translate(389.5,7) rotate(270) translate(0,3)" font-family="sans-serif" font-size="10px" fill="#000" opacity="1">(84130, inf]</text></g><g class="mark-rule role-axis-domain" pointer-events="none"><line transform="translate(0,0)" x2="400" y2="0" stroke="#888" stroke-width="1" opacity="1"/></g><g class="mark-text role-axis-title" pointer-events="none"><text text-anchor="middle" transform="translate(200,115.37994384765625)" font-family="sans-serif" font-size="11px" font-weight="bold" fill="#000" opacity="1">Income Group</text></g></g><path class="foreground" aria-hidden="true" d="" pointer-events="none" display="none"/></g></g><g class="mark-group role-axis" role="graphics-symbol" aria-roledescription="axis" aria-label="Y-axis titled 'Total Amount' for a linear scale with values from 0% to 100%"><g transform="translate(0.5,0.5)"><path class="background" aria-hidden="true" d="M0,0h0v0h0Z" pointer-events="none"/><g><g class="mark-rule role-axis-tick" pointer-events="none"><line transform="translate(0,300)" x2="-5" y2="0" stroke="#888" stroke-width="1" opacity="1"/><line transform="translate(0,270)" x2="-5" y2="0" stroke="#888" stroke-width="1" opacity="1"/><line transform="translate(0,240)" x2="-5" y2="0" stroke="#888" stroke-width="1" opacity="1"/><line transform="translate(0,210)" x2="-5" y2="0" stroke="#888" stroke-width="1" opacity="1"/><line transform="translate(0,180)" x2="-5" y2="0" stroke="#888" stroke-width="1" opacity="1"/><line transform="translate(0,150)" x2="-5" y2="0" stroke="#888" stroke-width="1" opacity="1"/><line transform="translate(0,120)" x2="-5" y2="0" stroke="#888" stroke-width="1" opacity="1"/><line transform="translate(0,90)" x2="-5" y2="0" stroke="#888" stroke-width="1" opacity="1"/><line transform="translate(0,60)" x2="-5" y2="0" stroke="#888" stroke-width="1" opacity="1"/><line transform="translate(0,30)" x2="-5" y2="0" stroke="#888" stroke-width="1" opacity="1"/><line transform="translate(0,0)" x2="-5" y2="0" stroke="#888" stroke-width="1" opacity="1"/></g><g class="mark-text role-axis-label" pointer-events="none"><text text-anchor="end" transform="translate(-7,303)" font-family="sans-serif" font-size="10px" fill="#000" opacity="1">0%</text><text text-anchor="end" transform="translate(-7,273)" font-family="sans-serif" font-size="10px" fill="#000" opacity="1">10%</text><text text-anchor="end" transform="translate(-7,243)" font-family="sans-serif" font-size="10px" fill="#000" opacity="1">20%</text><text text-anchor="end" transform="translate(-7,213)" font-family="sans-serif" font-size="10px" fill="#000" opacity="1">30%</text><text text-anchor="end" transform="translate(-7,183)" font-family="sans-serif" font-size="10px" fill="#000" opacity="1">40%</text><text text-anchor="end" transform="translate(-7,153)" font-family="sans-serif" font-size="10px" fill="#000" opacity="1">50%</text><text text-anchor="end" transform="translate(-7,123)" font-family="sans-serif" font-size="10px" fill="#000" opacity="1">60%</text><text text-anchor="end" transform="translate(-7,93.00000000000001)" font-family="sans-serif" font-size="10px" fill="#000" opacity="1">70%</text><text text-anchor="end" transform="translate(-7,62.999999999999986)" font-family="sans-serif" font-size="10px" fill="#000" opacity="1">80%</text><text text-anchor="end" transform="translate(-7,32.99999999999999)" font-family="sans-serif" font-size="10px" fill="#000" opacity="1">90%</text><text text-anchor="end" transform="translate(-7,3)" font-family="sans-serif" font-size="10px" fill="#000" opacity="1">100%</text></g><g class="mark-rule role-axis-domain" pointer-events="none"><line transform="translate(0,300)" x2="0" y2="-300" stroke="#888" stroke-width="1" opacity="1"/></g><g class="mark-text role-axis-title" pointer-events="none"><text text-anchor="middle" transform="translate(-36.709991455078125,150) rotate(-90) translate(0,-2)" font-family="sans-serif" font-size="11px" font-weight="bold" fill="#000" opacity="1">Total Amount</text></g></g><path class="foreground" aria-hidden="true" d="" pointer-events="none" display="none"/></g></g><g class="mark-rect role-mark marks" clip-path="url(#clip5)" role="graphics-object" aria-roledescription="rect mark container"><path aria-label="Income Group: (51381.5, 55001.5]; Total Amount: 63%; Product: MntWines" role="graphics-symbol" aria-roledescription="bar" d="M201,112.18875314744007h18v187.81124685255992h-18Z" fill="#eeca3b"/><path aria-label="Income Group: (38198.5, 41417.5]; Total Amount: 7%; Product: MntFishProducts" role="graphics-symbol" aria-roledescription="bar" d="M121,0h18v21.3533834586466h-18Z" fill="#4c78a8"/><path aria-label="Income Group: (41417.5, 44529]; Total Amount: 4%; Product: MntFishProducts" role="graphics-symbol" aria-roledescription="bar" d="M141,0h18v13.38985019161536h-18Z" fill="#4c78a8"/><path aria-label="Income Group: (32011, 35303]; Total Amount: 26%; Product: MntMeatProducts" role="graphics-symbol" aria-roledescription="bar" d="M81,97.80860791423616h18v77.30569131325872h-18Z" fill="#72b7b2"/><path aria-label="Income Group: (51381.5, 55001.5]; Total Amount: 3%; Product: MntFruits" role="graphics-symbol" aria-roledescription="bar" d="M201,11.660915788492021h18v8.219714632099253h-18Z" fill="#f58518"/><path aria-label="Income Group: (51381.5, 55001.5]; Total Amount: 3%; Product: MntSweetProducts" role="graphics-symbol" aria-roledescription="bar" d="M201,102.53100811340109h18v9.657745034038982h-18Z" fill="#54a24b"/><path aria-label="Income Group: (24117.5, 28427]; Total Amount: 9%; Product: MntFruits" role="graphics-symbol" aria-roledescription="bar" d="M41,38.20992092020128h18v26.70740474478793h-18Z" fill="#f58518"/><path aria-label="Income Group: (55001.5, 58482]; Total Amount: 3%; Product: MntSweetProducts" role="graphics-symbol" aria-roledescription="bar" d="M221,103.87751404239897h18v10.110527269432879h-18Z" fill="#54a24b"/><path aria-label="Income Group: (68522, 71819]; Total Amount: 50%; Product: MntWines" role="graphics-symbol" aria-roledescription="bar" d="M301,150.41963166977942h18v149.58036833022058h-18Z" fill="#eeca3b"/><path aria-label="Income Group: (-inf, 18985.5]; Total Amount: 7%; Product: MntFruits" role="graphics-symbol" aria-roledescription="bar" d="M1,31.194065002355153h18v20.52520018841262h-18Z" fill="#f58518"/><path aria-label="Income Group: (-inf, 18985.5]; Total Amount: 13%; Product: MntWines" role="graphics-symbol" aria-roledescription="bar" d="M1,261.7404616109279h18v38.25953838907208h-18Z" fill="#eeca3b"/><path aria-label="Income Group: (28427, 32011]; Total Amount: 16%; Product: MntGoldProds" role="graphics-symbol" aria-roledescription="bar" d="M61,43.92578586622549h18v46.691089576932164h-18Z" fill="#e45756"/><path aria-label="Income Group: (32011, 35303]; Total Amount: 16%; Product: MntGoldProds" role="graphics-symbol" aria-roledescription="bar" d="M81,48.43134163644963h18v49.37726627778653h-18Z" fill="#e45756"/><path aria-label="Income Group: (71819, 75744.75]; Total Amount: 7%; Product: MntFishProducts" role="graphics-symbol" aria-roledescription="bar" d="M321,0h18v20.003174121251433h-18Z" fill="#4c78a8"/><path aria-label="Income Group: (35303, 38198.5]; Total Amount: 16%; Product: MntGoldProds" role="graphics-symbol" aria-roledescription="bar" d="M101,36.95198329853859h18v46.84327982146715h-18Z" fill="#e45756"/><path aria-label="Income Group: (24117.5, 28427]; Total Amount: 13%; Product: MntFishProducts" role="graphics-symbol" aria-roledescription="bar" d="M41,0h18v38.20992092020128h-18Z" fill="#4c78a8"/><path aria-label="Income Group: (51381.5, 55001.5]; Total Amount: 4%; Product: MntFishProducts" role="graphics-symbol" aria-roledescription="bar" d="M201,0h18v11.660915788492021h-18Z" fill="#4c78a8"/><path aria-label="Income Group: (-inf, 18985.5]; Total Amount: 10%; Product: MntFishProducts" role="graphics-symbol" aria-roledescription="bar" d="M1,0h18v31.194065002355153h-18Z" fill="#4c78a8"/><path aria-label="Income Group: (75744.75, 79844]; Total Amount: 5%; Product: MntSweetProducts" role="graphics-symbol" aria-roledescription="bar" d="M341,144.07072368421052h18v13.515625h-18Z" fill="#54a24b"/><path aria-label="Income Group: (41417.5, 44529]; Total Amount: 3%; Product: MntFruits" role="graphics-symbol" aria-roledescription="bar" d="M141,13.38985019161536h18v9.91754732319129h-18Z" fill="#f58518"/><path aria-label="Income Group: (65247.5, 68522]; Total Amount: 4%; Product: MntFruits" role="graphics-symbol" aria-roledescription="bar" d="M281,17.854452312791945h18v13.371063733614587h-18Z" fill="#f58518"/><path aria-label="Income Group: (68522, 71819]; Total Amount: 5%; Product: MntSweetProducts" role="graphics-symbol" aria-roledescription="bar" d="M301,135.94174803186837h18v14.477883637911049h-18Z" fill="#54a24b"/><path aria-label="Income Group: (47947.5, 51381.5]; Total Amount: 6%; Product: MntFishProducts" role="graphics-symbol" aria-roledescription="bar" d="M181,0h18v16.771077423365675h-18Z" fill="#4c78a8"/><path aria-label="Income Group: (47947.5, 51381.5]; Total Amount: 3%; Product: MntSweetProducts" role="graphics-symbol" aria-roledescription="bar" d="M181,112.67036487972838h18v9.741284491415982h-18Z" fill="#54a24b"/><path aria-label="Income Group: (-inf, 18985.5]; Total Amount: 35%; Product: MntMeatProducts" role="graphics-symbol" aria-roledescription="bar" d="M1,134.98586905322657h18v104.4983513895431h-18Z" fill="#72b7b2"/><path aria-label="Income Group: (41417.5, 44529]; Total Amount: 3%; Product: MntSweetProducts" role="graphics-symbol" aria-roledescription="bar" d="M141,127.15131808152364h18v9.127859714318873h-18Z" fill="#54a24b"/><path aria-label="Income Group: (38198.5, 41417.5]; Total Amount: 5%; Product: MntSweetProducts" role="graphics-symbol" aria-roledescription="bar" d="M121,151.09440267335003h18v15.338345864661676h-18Z" fill="#54a24b"/><path aria-label="Income Group: (47947.5, 51381.5]; Total Amount: 3%; Product: MntFruits" role="graphics-symbol" aria-roledescription="bar" d="M181,16.771077423365675h18v8.658122519248248h-18Z" fill="#f58518"/><path aria-label="Income Group: (75744.75, 79844]; Total Amount: 47%; Product: MntWines" role="graphics-symbol" aria-roledescription="bar" d="M341,157.58634868421052h18v142.41365131578948h-18Z" fill="#eeca3b"/><path aria-label="Income Group: (68522, 71819]; Total Amount: 6%; Product: MntGoldProds" role="graphics-symbol" aria-roledescription="bar" d="M301,33.5303435069387h18v18.241565994467955h-18Z" fill="#e45756"/><path aria-label="Income Group: (84130, inf]; Total Amount: 4%; Product: MntGoldProds" role="graphics-symbol" aria-roledescription="bar" d="M381,28.23200849100793h18v12.32204163677222h-18Z" fill="#e45756"/><path aria-label="Income Group: (58482, 62060.25]; Total Amount: 4%; Product: MntSweetProducts" role="graphics-symbol" aria-roledescription="bar" d="M241,117.04463437796771h18v11.468186134852814h-18Z" fill="#54a24b"/><path aria-label="Income Group: (28427, 32011]; Total Amount: 26%; Product: MntMeatProducts" role="graphics-symbol" aria-roledescription="bar" d="M61,90.61687544315765h18v78.77570314346491h-18Z" fill="#72b7b2"/><path aria-label="Income Group: (-inf, 18985.5]; Total Amount: 7%; Product: MntSweetProducts" role="graphics-symbol" aria-roledescription="bar" d="M1,239.48422044276967h18v22.256241168158255h-18Z" fill="#54a24b"/><path aria-label="Income Group: (44529, 47947.5]; Total Amount: 57%; Product: MntWines" role="graphics-symbol" aria-roledescription="bar" d="M161,129.34934375872663h18v170.65065624127337h-18Z" fill="#eeca3b"/><path aria-label="Income Group: (18985.5, 24117.5]; Total Amount: 11%; Product: MntFishProducts" role="graphics-symbol" aria-roledescription="bar" d="M21,0h18v34.340354767184046h-18Z" fill="#4c78a8"/><path aria-label="Income Group: (65247.5, 68522]; Total Amount: 55%; Product: MntWines" role="graphics-symbol" aria-roledescription="bar" d="M281,136.2984028928733h18v163.7015971071267h-18Z" fill="#eeca3b"/><path aria-label="Income Group: (71819, 75744.75]; Total Amount: 5%; Product: MntSweetProducts" role="graphics-symbol" aria-roledescription="bar" d="M321,144.5515518692814h18v14.666510260691922h-18Z" fill="#54a24b"/><path aria-label="Income Group: (79844, 84130]; Total Amount: 5%; Product: MntFruits" role="graphics-symbol" aria-roledescription="bar" d="M361,20.893991589794325h18v14.727512956181258h-18Z" fill="#f58518"/><path aria-label="Income Group: (38198.5, 41417.5]; Total Amount: 45%; Product: MntWines" role="graphics-symbol" aria-roledescription="bar" d="M121,166.4327485380117h18v133.5672514619883h-18Z" fill="#eeca3b"/><path aria-label="Income Group: (38198.5, 41417.5]; Total Amount: 14%; Product: MntGoldProds" role="graphics-symbol" aria-roledescription="bar" d="M121,36.758563074352544h18v43.30827067669171h-18Z" fill="#e45756"/><path aria-label="Income Group: (35303, 38198.5]; Total Amount: 4%; Product: MntSweetProducts" role="graphics-symbol" aria-roledescription="bar" d="M101,156.986538046217h18v13.281981138866882h-18Z" fill="#54a24b"/><path aria-label="Income Group: (44529, 47947.5]; Total Amount: 6%; Product: MntFishProducts" role="graphics-symbol" aria-roledescription="bar" d="M161,3.3306690738754696e-14h18v16.912175370008367h-18Z" fill="#4c78a8"/><path aria-label="Income Group: (71819, 75744.75]; Total Amount: 31%; Product: MntMeatProducts" role="graphics-symbol" aria-roledescription="bar" d="M321,51.85548087936957h18v92.69607098991185h-18Z" fill="#72b7b2"/><path aria-label="Income Group: (44529, 47947.5]; Total Amount: 19%; Product: MntMeatProducts" role="graphics-symbol" aria-roledescription="bar" d="M161,60.72675230382578h18v57.53281206366935h-18Z" fill="#72b7b2"/><path aria-label="Income Group: (62060.25, 65247.5]; Total Amount: 23%; Product: MntMeatProducts" role="graphics-symbol" aria-roledescription="bar" d="M261,49.12410763316859h18v68.58045030203184h-18Z" fill="#72b7b2"/><path aria-label="Income Group: (58482, 62060.25]; Total Amount: 57%; Product: MntWines" role="graphics-symbol" aria-roledescription="bar" d="M241,128.51282051282053h18v171.48717948717947h-18Z" fill="#eeca3b"/><path aria-label="Income Group: (71819, 75744.75]; Total Amount: 47%; Product: MntWines" role="graphics-symbol" aria-roledescription="bar" d="M321,159.21806212997333h18v140.78193787002667h-18Z" fill="#eeca3b"/><path aria-label="Income Group: (75744.75, 79844]; Total Amount: 6%; Product: MntGoldProds" role="graphics-symbol" aria-roledescription="bar" d="M341,34.097450657894726h18v17.103207236842117h-18Z" fill="#e45756"/><path aria-label="Income Group: (18985.5, 24117.5]; Total Amount: 10%; Product: MntSweetProducts" role="graphics-symbol" aria-roledescription="bar" d="M21,211.529933481153h18v30.14135254988912h-18Z" fill="#54a24b"/><path aria-label="Income Group: (62060.25, 65247.5]; Total Amount: 7%; Product: MntGoldProds" role="graphics-symbol" aria-roledescription="bar" d="M261,28.756177924217464h18v20.367929708951127h-18Z" fill="#e45756"/><path aria-label="Income Group: (84130, inf]; Total Amount: 36%; Product: MntMeatProducts" role="graphics-symbol" aria-roledescription="bar" d="M381,40.55405012778015h18v108.79578295750346h-18Z" fill="#72b7b2"/><path aria-label="Income Group: (58482, 62060.25]; Total Amount: 5%; Product: MntFruits" role="graphics-symbol" aria-roledescription="bar" d="M241,16.74833808167143h18v13.979107312440654h-18Z" fill="#f58518"/><path aria-label="Income Group: (24117.5, 28427]; Total Amount: 27%; Product: MntMeatProducts" role="graphics-symbol" aria-roledescription="bar" d="M41,131.73975557153128h18v81.45219266714594h-18Z" fill="#72b7b2"/><path aria-label="Income Group: (47947.5, 51381.5]; Total Amount: 59%; Product: MntWines" role="graphics-symbol" aria-roledescription="bar" d="M181,122.41164937114436h18v177.58835062885564h-18Z" fill="#eeca3b"/><path aria-label="Income Group: (44529, 47947.5]; Total Amount: 3%; Product: MntFruits" role="graphics-symbol" aria-roledescription="bar" d="M161,16.9121753700084h18v9.393325886623838h-18Z" fill="#f58518"/><path aria-label="Income Group: (18985.5, 24117.5]; Total Amount: 24%; Product: MntGoldProds" role="graphics-symbol" aria-roledescription="bar" d="M21,63.691796008869176h18v71.25831485587582h-18Z" fill="#e45756"/><path aria-label="Income Group: (71819, 75744.75]; Total Amount: 6%; Product: MntGoldProds" role="graphics-symbol" aria-roledescription="bar" d="M321,34.19563627330564h18v17.659844606063935h-18Z" fill="#e45756"/><path aria-label="Income Group: (28427, 32011]; Total Amount: 10%; Product: MntFishProducts" role="graphics-symbol" aria-roledescription="bar" d="M61,0h18v28.893878515717308h-18Z" fill="#4c78a8"/><path aria-label="Income Group: (62060.25, 65247.5]; Total Amount: 5%; Product: MntFishProducts" role="graphics-symbol" aria-roledescription="bar" d="M261,0h18v15.870400878638103h-18Z" fill="#4c78a8"/><path aria-label="Income Group: (44529, 47947.5]; Total Amount: 4%; Product: MntSweetProducts" role="graphics-symbol" aria-roledescription="bar" d="M161,118.25956436749513h18v11.089779391231502h-18Z" fill="#54a24b"/><path aria-label="Income Group: (24117.5, 28427]; Total Amount: 9%; Product: MntSweetProducts" role="graphics-symbol" aria-roledescription="bar" d="M41,213.1919482386772h18v28.25305535585909h-18Z" fill="#54a24b"/><path aria-label="Income Group: (41417.5, 44529]; Total Amount: 13%; Product: MntGoldProds" role="graphics-symbol" aria-roledescription="bar" d="M141,23.30739751480665h18v37.77726164208572h-18Z" fill="#e45756"/><path aria-label="Income Group: (18985.5, 24117.5]; Total Amount: 26%; Product: MntMeatProducts" role="graphics-symbol" aria-roledescription="bar" d="M21,134.950110864745h18v76.579822616408h-18Z" fill="#72b7b2"/><path aria-label="Income Group: (51381.5, 55001.5]; Total Amount: 10%; Product: MntGoldProds" role="graphics-symbol" aria-roledescription="bar" d="M201,19.880630420591274h18v30.36090646274362h-18Z" fill="#e45756"/><path aria-label="Income Group: (55001.5, 58482]; Total Amount: 18%; Product: MntMeatProducts" role="graphics-symbol" aria-roledescription="bar" d="M221,48.675205931955354h18v55.20230811044362h-18Z" fill="#72b7b2"/><path aria-label="Income Group: (55001.5, 58482]; Total Amount: 3%; Product: MntFruits" role="graphics-symbol" aria-roledescription="bar" d="M221,13.90302033534503h18v10.093801831435457h-18Z" fill="#f58518"/><path aria-label="Income Group: (41417.5, 44529]; Total Amount: 22%; Product: MntMeatProducts" role="graphics-symbol" aria-roledescription="bar" d="M141,61.084659156892364h18v66.06665892463127h-18Z" fill="#72b7b2"/><path aria-label="Income Group: (84130, inf]; Total Amount: 4%; Product: MntFruits" role="graphics-symbol" aria-roledescription="bar" d="M381,15.993572449288163h18v12.238436041719769h-18Z" fill="#f58518"/><path aria-label="Income Group: (79844, 84130]; Total Amount: 33%; Product: MntMeatProducts" role="graphics-symbol" aria-roledescription="bar" d="M361,51.116433686674576h18v99.22655066937756h-18Z" fill="#72b7b2"/><path aria-label="Income Group: (28427, 32011]; Total Amount: 5%; Product: MntFruits" role="graphics-symbol" aria-roledescription="bar" d="M61,28.893878515717308h18v15.031907350508181h-18Z" fill="#f58518"/><path aria-label="Income Group: (38198.5, 41417.5]; Total Amount: 24%; Product: MntMeatProducts" role="graphics-symbol" aria-roledescription="bar" d="M121,80.06683375104426h18v71.02756892230578h-18Z" fill="#72b7b2"/><path aria-label="Income Group: (28427, 32011]; Total Amount: 38%; Product: MntWines" role="graphics-symbol" aria-roledescription="bar" d="M61,184.60174899550935h18v115.39825100449065h-18Z" fill="#eeca3b"/><path aria-label="Income Group: (79844, 84130]; Total Amount: 5%; Product: MntGoldProds" role="graphics-symbol" aria-roledescription="bar" d="M361,35.62150454597558h18v15.494929140698993h-18Z" fill="#e45756"/><path aria-label="Income Group: (79844, 84130]; Total Amount: 5%; Product: MntSweetProducts" role="graphics-symbol" aria-roledescription="bar" d="M361,150.34298435605214h18v15.261446386447176h-18Z" fill="#54a24b"/><path aria-label="Income Group: (58482, 62060.25]; Total Amount: 9%; Product: MntGoldProds" role="graphics-symbol" aria-roledescription="bar" d="M241,30.727445394112085h18v26.57549857549856h-18Z" fill="#e45756"/><path aria-label="Income Group: (68522, 71819]; Total Amount: 7%; Product: MntFishProducts" role="graphics-symbol" aria-roledescription="bar" d="M301,0h18v20.48275372940258h-18Z" fill="#4c78a8"/><path aria-label="Income Group: (68522, 71819]; Total Amount: 4%; Product: MntFruits" role="graphics-symbol" aria-roledescription="bar" d="M301,20.48275372940258h18v13.047589777536118h-18Z" fill="#f58518"/><path aria-label="Income Group: (32011, 35303]; Total Amount: 10%; Product: MntFishProducts" role="graphics-symbol" aria-roledescription="bar" d="M81,0h18v28.708812864575105h-18Z" fill="#4c78a8"/><path aria-label="Income Group: (62060.25, 65247.5]; Total Amount: 57%; Product: MntWines" role="graphics-symbol" aria-roledescription="bar" d="M261,129.22844590884128h18v170.77155409115872h-18Z" fill="#eeca3b"/><path aria-label="Income Group: (55001.5, 58482]; Total Amount: 8%; Product: MntGoldProds" role="graphics-symbol" aria-roledescription="bar" d="M221,23.996822166780486h18v24.678383765174868h-18Z" fill="#e45756"/><path aria-label="Income Group: (41417.5, 44529]; Total Amount: 55%; Product: MntWines" role="graphics-symbol" aria-roledescription="bar" d="M141,136.27917779584251h18v163.72082220415749h-18Z" fill="#eeca3b"/><path aria-label="Income Group: (84130, inf]; Total Amount: 5%; Product: MntFishProducts" role="graphics-symbol" aria-roledescription="bar" d="M381,0h18v15.993572449288163h-18Z" fill="#4c78a8"/><path aria-label="Income Group: (32011, 35303]; Total Amount: 7%; Product: MntFruits" role="graphics-symbol" aria-roledescription="bar" d="M81,28.708812864575105h18v19.722528771874526h-18Z" fill="#f58518"/><path aria-label="Income Group: (24117.5, 28427]; Total Amount: 22%; Product: MntGoldProds" role="graphics-symbol" aria-roledescription="bar" d="M41,64.9173256649892h18v66.82242990654207h-18Z" fill="#e45756"/><path aria-label="Income Group: (47947.5, 51381.5]; Total Amount: 19%; Product: MntMeatProducts" role="graphics-symbol" aria-roledescription="bar" d="M181,55.99445268040745h18v56.67591219932093h-18Z" fill="#72b7b2"/><path aria-label="Income Group: (-inf, 18985.5]; Total Amount: 28%; Product: MntGoldProds" role="graphics-symbol" aria-roledescription="bar" d="M1,51.71926519076777h18v83.2666038624588h-18Z" fill="#e45756"/><path aria-label="Income Group: (44529, 47947.5]; Total Amount: 11%; Product: MntGoldProds" role="graphics-symbol" aria-roledescription="bar" d="M161,26.305501256632237h18v34.42125104719355h-18Z" fill="#e45756"/><path aria-label="Income Group: (75744.75, 79844]; Total Amount: 7%; Product: MntFishProducts" role="graphics-symbol" aria-roledescription="bar" d="M341,0h18v21.16981907894736h-18Z" fill="#4c78a8"/><path aria-label="Income Group: (79844, 84130]; Total Amount: 7%; Product: MntFishProducts" role="graphics-symbol" aria-roledescription="bar" d="M361,0h18v20.893991589794325h-18Z" fill="#4c78a8"/><path aria-label="Income Group: (75744.75, 79844]; Total Amount: 31%; Product: MntMeatProducts" role="graphics-symbol" aria-roledescription="bar" d="M341,51.20065789473684h18v92.87006578947367h-18Z" fill="#72b7b2"/><path aria-label="Income Group: (55001.5, 58482]; Total Amount: 5%; Product: MntFishProducts" role="graphics-symbol" aria-roledescription="bar" d="M221,0h18v13.90302033534503h-18Z" fill="#4c78a8"/><path aria-label="Income Group: (71819, 75744.75]; Total Amount: 5%; Product: MntFruits" role="graphics-symbol" aria-roledescription="bar" d="M321,20.003174121251433h18v14.192462152054205h-18Z" fill="#f58518"/><path aria-label="Income Group: (84130, inf]; Total Amount: 46%; Product: MntWines" role="graphics-symbol" aria-roledescription="bar" d="M381,163.29062134966705h18v136.70937865033295h-18Z" fill="#eeca3b"/><path aria-label="Income Group: (84130, inf]; Total Amount: 5%; Product: MntSweetProducts" role="graphics-symbol" aria-roledescription="bar" d="M381,149.34983308528362h18v13.940788264383428h-18Z" fill="#54a24b"/><path aria-label="Income Group: (38198.5, 41417.5]; Total Amount: 5%; Product: MntFruits" role="graphics-symbol" aria-roledescription="bar" d="M121,21.3533834586466h18v15.405179615705944h-18Z" fill="#f58518"/><path aria-label="Income Group: (65247.5, 68522]; Total Amount: 6%; Product: MntGoldProds" role="graphics-symbol" aria-roledescription="bar" d="M281,31.225516046406533h18v19.02403194214253h-18Z" fill="#e45756"/><path aria-label="Income Group: (24117.5, 28427]; Total Amount: 20%; Product: MntWines" role="graphics-symbol" aria-roledescription="bar" d="M41,241.4450035945363h18v58.5549964054637h-18Z" fill="#eeca3b"/><path aria-label="Income Group: (51381.5, 55001.5]; Total Amount: 17%; Product: MntMeatProducts" role="graphics-symbol" aria-roledescription="bar" d="M201,50.241536883334895h18v52.28947123006619h-18Z" fill="#72b7b2"/><path aria-label="Income Group: (62060.25, 65247.5]; Total Amount: 4%; Product: MntFruits" role="graphics-symbol" aria-roledescription="bar" d="M261,15.870400878638103h18v12.885777045579362h-18Z" fill="#f58518"/><path aria-label="Income Group: (35303, 38198.5]; Total Amount: 24%; Product: MntMeatProducts" role="graphics-symbol" aria-roledescription="bar" d="M101,83.79526312000574h18v73.19127492621125h-18Z" fill="#72b7b2"/><path aria-label="Income Group: (58482, 62060.25]; Total Amount: 20%; Product: MntMeatProducts" role="graphics-symbol" aria-roledescription="bar" d="M241,57.302943969610645h18v59.741690408357066h-18Z" fill="#72b7b2"/><path aria-label="Income Group: (68522, 71819]; Total Amount: 28%; Product: MntMeatProducts" role="graphics-symbol" aria-roledescription="bar" d="M301,51.771909501406654h18v84.16983853046172h-18Z" fill="#72b7b2"/><path aria-label="Income Group: (47947.5, 51381.5]; Total Amount: 10%; Product: MntGoldProds" role="graphics-symbol" aria-roledescription="bar" d="M181,25.429199942613923h18v30.565252737793525h-18Z" fill="#e45756"/><path aria-label="Income Group: (58482, 62060.25]; Total Amount: 6%; Product: MntFishProducts" role="graphics-symbol" aria-roledescription="bar" d="M241,0h18v16.74833808167143h-18Z" fill="#4c78a8"/><path aria-label="Income Group: (18985.5, 24117.5]; Total Amount: 10%; Product: MntFruits" role="graphics-symbol" aria-roledescription="bar" d="M21,34.340354767184046h18v29.35144124168513h-18Z" fill="#f58518"/><path aria-label="Income Group: (75744.75, 79844]; Total Amount: 4%; Product: MntFruits" role="graphics-symbol" aria-roledescription="bar" d="M341,21.16981907894736h18v12.927631578947366h-18Z" fill="#f58518"/><path aria-label="Income Group: (65247.5, 68522]; Total Amount: 4%; Product: MntSweetProducts" role="graphics-symbol" aria-roledescription="bar" d="M281,123.68163326804282h18v12.616769624830482h-18Z" fill="#54a24b"/><path aria-label="Income Group: (65247.5, 68522]; Total Amount: 24%; Product: MntMeatProducts" role="graphics-symbol" aria-roledescription="bar" d="M281,50.24954798854906h18v73.43208527949375h-18Z" fill="#72b7b2"/><path aria-label="Income Group: (79844, 84130]; Total Amount: 45%; Product: MntWines" role="graphics-symbol" aria-roledescription="bar" d="M361,165.60443074249932h18v134.39556925750068h-18Z" fill="#eeca3b"/><path aria-label="Income Group: (62060.25, 65247.5]; Total Amount: 4%; Product: MntSweetProducts" role="graphics-symbol" aria-roledescription="bar" d="M261,117.70455793520043h18v11.523887973640853h-18Z" fill="#54a24b"/><path aria-label="Income Group: (28427, 32011]; Total Amount: 5%; Product: MntSweetProducts" role="graphics-symbol" aria-roledescription="bar" d="M61,169.39257858662256h18v15.209170408886791h-18Z" fill="#54a24b"/><path aria-label="Income Group: (35303, 38198.5]; Total Amount: 8%; Product: MntFishProducts" role="graphics-symbol" aria-roledescription="bar" d="M101,0h18v24.68504787272333h-18Z" fill="#4c78a8"/><path aria-label="Income Group: (35303, 38198.5]; Total Amount: 4%; Product: MntFruits" role="graphics-symbol" aria-roledescription="bar" d="M101,24.68504787272333h18v12.266935425815262h-18Z" fill="#f58518"/><path aria-label="Income Group: (18985.5, 24117.5]; Total Amount: 19%; Product: MntWines" role="graphics-symbol" aria-roledescription="bar" d="M21,241.67128603104211h18v58.328713968957885h-18Z" fill="#eeca3b"/><path aria-label="Income Group: (35303, 38198.5]; Total Amount: 43%; Product: MntWines" role="graphics-symbol" aria-roledescription="bar" d="M101,170.26851918508387h18v129.73148081491613h-18Z" fill="#eeca3b"/><path aria-label="Income Group: (55001.5, 58482]; Total Amount: 62%; Product: MntWines" role="graphics-symbol" aria-roledescription="bar" d="M221,113.98804131183185h18v186.01195868816814h-18Z" fill="#eeca3b"/><path aria-label="Income Group: (32011, 35303]; Total Amount: 6%; Product: MntSweetProducts" role="graphics-symbol" aria-roledescription="bar" d="M81,175.11429922749488h18v16.837458615796947h-18Z" fill="#54a24b"/><path aria-label="Income Group: (65247.5, 68522]; Total Amount: 6%; Product: MntFishProducts" role="graphics-symbol" aria-roledescription="bar" d="M281,0h18v17.854452312791945h-18Z" fill="#4c78a8"/><path aria-label="Income Group: (32011, 35303]; Total Amount: 36%; Product: MntWines" role="graphics-symbol" aria-roledescription="bar" d="M81,191.95175784329183h18v108.04824215670817h-18Z" fill="#eeca3b"/></g><g class="mark-group role-legend" role="graphics-symbol" aria-roledescription="legend" aria-label="Symbol legend titled 'Product' for fill color with 6 values: MntFishProducts, MntFruits, MntGoldProds, MntMeatProducts, MntSweetProducts, MntWines"><g transform="translate(418,0)"><path class="background" aria-hidden="true" d="M0,0h104v92h-104Z" pointer-events="none"/><g><g class="mark-group role-legend-entry"><g transform="translate(0,16)"><path class="background" aria-hidden="true" d="M0,0h0v0h0Z" pointer-events="none"/><g><g class="mark-group role-scope" role="graphics-object" aria-roledescription="group mark container"><g transform="translate(0,0)"><path class="background" aria-hidden="true" d="M0,0h103.93983459472656v11h-103.93983459472656Z" pointer-events="none" opacity="1"/><g><g class="mark-symbol role-legend-symbol" pointer-events="none"><path transform="translate(6,6)" d="M-5,-5h10v10h-10Z" fill="#4c78a8" stroke-width="1.5" opacity="1"/></g><g class="mark-text role-legend-label" pointer-events="none"><text text-anchor="start" transform="translate(16,9)" font-family="sans-serif" font-size="10px" fill="#000" opacity="1">MntFishProducts</text></g></g><path class="foreground" aria-hidden="true" d="" pointer-events="none" display="none"/></g><g transform="translate(0,13)"><path class="background" aria-hidden="true" d="M0,0h103.93983459472656v11h-103.93983459472656Z" pointer-events="none" opacity="1"/><g><g class="mark-symbol role-legend-symbol" pointer-events="none"><path transform="translate(6,6)" d="M-5,-5h10v10h-10Z" fill="#f58518" stroke-width="1.5" opacity="1"/></g><g class="mark-text role-legend-label" pointer-events="none"><text text-anchor="start" transform="translate(16,9)" font-family="sans-serif" font-size="10px" fill="#000" opacity="1">MntFruits</text></g></g><path class="foreground" aria-hidden="true" d="" pointer-events="none" display="none"/></g><g transform="translate(0,26)"><path class="background" aria-hidden="true" d="M0,0h103.93983459472656v11h-103.93983459472656Z" pointer-events="none" opacity="1"/><g><g class="mark-symbol role-legend-symbol" pointer-events="none"><path transform="translate(6,6)" d="M-5,-5h10v10h-10Z" fill="#e45756" stroke-width="1.5" opacity="1"/></g><g class="mark-text role-legend-label" pointer-events="none"><text text-anchor="start" transform="translate(16,9)" font-family="sans-serif" font-size="10px" fill="#000" opacity="1">MntGoldProds</text></g></g><path class="foreground" aria-hidden="true" d="" pointer-events="none" display="none"/></g><g transform="translate(0,39)"><path class="background" aria-hidden="true" d="M0,0h103.93983459472656v11h-103.93983459472656Z" pointer-events="none" opacity="1"/><g><g class="mark-symbol role-legend-symbol" pointer-events="none"><path transform="translate(6,6)" d="M-5,-5h10v10h-10Z" fill="#72b7b2" stroke-width="1.5" opacity="1"/></g><g class="mark-text role-legend-label" pointer-events="none"><text text-anchor="start" transform="translate(16,9)" font-family="sans-serif" font-size="10px" fill="#000" opacity="1">MntMeatProducts</text></g></g><path class="foreground" aria-hidden="true" d="" pointer-events="none" display="none"/></g><g transform="translate(0,52)"><path class="background" aria-hidden="true" d="M0,0h103.93983459472656v11h-103.93983459472656Z" pointer-events="none" opacity="1"/><g><g class="mark-symbol role-legend-symbol" pointer-events="none"><path transform="translate(6,6)" d="M-5,-5h10v10h-10Z" fill="#54a24b" stroke-width="1.5" opacity="1"/></g><g class="mark-text role-legend-label" pointer-events="none"><text text-anchor="start" transform="translate(16,9)" font-family="sans-serif" font-size="10px" fill="#000" opacity="1">MntSweetProducts</text></g></g><path class="foreground" aria-hidden="true" d="" pointer-events="none" display="none"/></g><g transform="translate(0,65)"><path class="background" aria-hidden="true" d="M0,0h103.93983459472656v11h-103.93983459472656Z" pointer-events="none" opacity="1"/><g><g class="mark-symbol role-legend-symbol" pointer-events="none"><path transform="translate(6,6)" d="M-5,-5h10v10h-10Z" fill="#eeca3b" stroke-width="1.5" opacity="1"/></g><g class="mark-text role-legend-label" pointer-events="none"><text text-anchor="start" transform="translate(16,9)" font-family="sans-serif" font-size="10px" fill="#000" opacity="1">MntWines</text></g></g><path class="foreground" aria-hidden="true" d="" pointer-events="none" display="none"/></g></g></g><path class="foreground" aria-hidden="true" d="" pointer-events="none" display="none"/></g></g><g class="mark-text role-legend-title" pointer-events="none"><text text-anchor="start" transform="translate(0,9)" font-family="sans-serif" font-size="11px" font-weight="bold" fill="#000" opacity="1">Product</text></g></g><path class="foreground" aria-hidden="true" d="" pointer-events="none" display="none"/></g></g></g><path class="foreground" aria-hidden="true" d="" display="none"/></g></g></g><defs><clipPath id="clip5"><rect x="0" y="0" width="400" height="300"/></clipPath></defs></svg>