<svg version="1.1" viewBox="0.0 0.0 960.0 720.0" fill="none" stroke="none" stroke-linecap="square" stroke-miterlimit="10" xmlns:xlink="http://www.w3.org/1999/xlink" xmlns="http://www.w3.org/2000/svg"><clipPath id="gc648a02d0c_0_214.0"><path d="m0 0l960.0 0l0 720.0l-960.0 0l0 -720.0z" clip-rule="nonzero"/></clipPath><g clip-path="url(#gc648a02d0c_0_214.0)"><path fill="#ffffff" d="m0 0l960.0 0l0 720.0l-960.0 0z" fill-rule="evenodd"/><path fill="#ffffff" d="m0 129.6l960.00006 0l0 33.59999l-960.00006 0z" fill-rule="evenodd"/><path fill="#dd8047" d="m0 134.4l56.0 0l0 24.0l-56.0 0z" fill-rule="evenodd"/><path fill="#94b6d2" d="m62.0 134.4l898.0 0l0 24.0l-898.0 0z" fill-rule="evenodd"/><path fill="#000000" fill-opacity="0.0" d="m64.32 24.0l856.0 0l0 104.0l-856.0 0z" fill-rule="evenodd"/><path fill="#775f55" d="m126.241875 98.929375q-8.015625 -6.1875 -13.28125 -15.359375l0 17.640625q-2.984375 2.75 -2.984375 0.234375l0 -17.421875q-7.78125 10.09375 -19.015625 16.046875q-1.609375 0.453125 -0.453125 -0.921875q11.453125 -7.5625 18.09375 -17.640625l-7.5625 0l0 2.0625q-2.96875 2.75 -2.96875 0.234375l0 -19.015625l3.4375 1.59375l8.46875 0l0 -5.953125l-13.0625 0l0 -1.375l13.0625 0l0 -8.9375l4.125 0.6875q2.53125 0.921875 -1.140625 1.84375l0 6.40625l9.84375 0l2.984375 -2.984375l3.6718826 2.75q1.375 1.15625 0 1.609375l-16.500008 0l0 5.953125l9.15625 0l1.375 -1.828125l3.21875 2.296875q1.3750076 1.140625 -0.921875 1.59375l0 14.4375q-2.984375 2.75 -2.984375 0.234375l0 -1.609375l-9.84375 0q5.953125 9.859375 17.406258 14.890625q-2.5156326 0.6875 -4.1250076 2.53125zm-48.5625 -39.421875q-1.609375 -1.375 0.453125 -0.90625q1.828125 0.6875 3.203125 1.828125l4.59375 -11.21875l3.421875 2.28125q1.609375 1.828125 -1.359375 1.15625l-5.96875 8.234375q2.296875 2.0625 2.296875 3.90625q0 1.59375 -1.140625 1.59375q-1.15625 0 -2.0625 -2.28125q-0.6875 -1.84375 -3.4375 -4.59375zm5.265625 22.6875q1.609375 1.140625 -1.375 1.609375q-1.140625 7.78125 -4.578125 14.65625q-1.375 1.609375 -0.921875 -0.453125q2.75 -7.796875 2.984375 -16.71875l3.890625 0.90625zm11.0 7.109375q-1.375 -4.59375 -3.21875 -7.109375q-0.90625 -1.140625 0.46875 -0.6875q2.75 1.828125 4.34375 4.578125q1.375 2.296875 1.375 3.90625q0 1.59375 -1.140625 1.59375q-1.140625 0 -1.828125 -2.28125zm2.0625 -11.6875q0 2.0625 -1.375 2.0625q-1.15625 0 -1.375 -1.609375q-0.234375 -1.140625 -0.46875 -2.28125l-4.796875 0.90625l0 24.515625q-2.984375 2.75 -2.984375 0.234375l0 -24.28125l-5.953125 0.90625q-0.46875 3.21875 -1.84375 1.15625l-1.375 -3.671875l5.96875 -0.234375l9.15625 -18.09375l3.4375 2.28125q1.375 1.15625 -1.828125 1.375l-9.625 14.4375l9.625 -0.453125q-0.6875 -2.296875 -2.296875 -4.125q-1.140625 -1.140625 0.453125 -0.6875q2.0625 1.140625 3.671875 3.4375q1.609375 2.296875 1.609375 4.125zm13.96875 2.515625l0 -5.71875l-8.9375 0l0 5.71875l8.9375 0zm-8.9375 -7.09375l8.9375 0l0 -5.28125l-8.9375 0l0 5.28125zm21.765625 1.375l-9.84375 0l0 5.71875l9.84375 0l0 -5.71875zm-9.84375 -1.375l9.84375 0l0 -5.28125l-9.84375 0l0 5.28125zm42.156258 -7.34375q-7.5625 4.359375 -15.125 8.25q-0.21875 2.75 -2.0625 0.921875l-2.96875 -2.984375q12.59375 -3.4375 20.15625 -7.328125l0 -11.0l-19.46875 0l0 -1.375l18.78125 0l1.375 -1.828125l3.203125 2.296875q1.375 1.140625 -0.90625 1.59375l0 15.8125q0 2.296875 -1.609375 3.890625q-0.921875 0.921875 -2.515625 0.921875q-0.6875 0 -0.6875 -1.140625q0 -1.375 -1.375 -1.609375l-2.984375 -0.453125q-0.921875 -0.46875 0 -0.921875l4.578125 0q1.609375 0 1.609375 -1.609375l0 -3.4375zm-8.9375 -6.40625q1.828125 1.59375 1.828125 3.203125q0 1.828125 -1.140625 1.828125q-1.140625 0 -1.828125 -1.59375q-1.140625 -2.75 -5.046875 -5.28125q-1.140625 -0.90625 0.46875 -0.90625q3.890625 1.140625 5.71875 2.75zm38.03125 -6.640625q1.375 1.140625 -0.90625 1.59375l0 16.5q0 2.296875 -1.609375 3.890625q-0.921875 0.921875 -2.515625 0.921875q-0.6875 0 -0.6875 -1.140625q0 -1.15625 -1.15625 -1.375l-3.203125 -0.6875q-0.90625 -0.46875 0 -0.921875l4.578125 0q1.609375 0 1.609375 -1.609375l0 -5.71875q-6.640625 3.890625 -13.515625 7.328125q-0.453125 2.296875 -1.609375 1.140625l-3.203125 -3.203125q8.9375 -2.296875 18.328125 -6.421875l0 -9.390625l-18.78125 0l0 -1.375l18.09375 0l1.375 -1.828125l3.203125 2.296875zm-20.15625 3.421875q4.359375 0.921875 6.421875 2.984375q1.59375 1.609375 1.59375 2.984375q0 1.59375 -1.59375 1.59375q-1.375 0 -1.84375 -1.828125q-0.453125 -2.0625 -4.8125 -5.046875q-0.90625 -0.6875 0.234375 -0.6875zm-15.125 34.140625l0 7.5625l26.359375 0l0 -7.5625l-26.359375 0zm0 -8.921875l0 7.546875l26.359375 0l0 -7.546875l-26.359375 0zm30.25 -0.921875q1.375 1.140625 -0.921875 1.609375l0 19.703125q-2.96875 2.75 -2.96875 0.21875l0 -2.75l-26.359375 0l0 2.984375q-2.96875 2.75 -2.96875 0.234375l0 -24.296875l3.421875 1.84375l8.484375 0l1.828125 -7.5625l4.125 2.0625q1.84375 0.6875 -1.828125 1.59375l-2.296875 3.90625l14.90625 0l1.375 -1.84375l3.203125 2.296875zm19.9375 -3.203125l0 -2.0625l41.6875 0l0 2.0625l-41.6875 0z" fill-rule="nonzero"/><path fill="#775f55" d="m276.09344 75.10125l0 -22.6875l2.75 1.375l8.703125 -3.671875l2.53125 2.53125q1.140625 1.140625 -3.21875 0.671875l-7.78125 1.609375l0 5.265625l2.96875 0l2.296875 -2.28125l2.984375 2.0625q1.375 1.140625 0 1.59375l-8.25 0l0 5.734375l3.4375 0l2.28125 -2.296875l2.984375 2.0625q1.375 1.15625 0 1.609375l-8.703125 0l0 6.421875l28.640625 0l0 -6.421875l-7.109375 0l0 -1.375l7.109375 0l0 -5.734375l-7.328125 0l0 -1.375l7.328125 0l0 -5.953125l-7.328125 0l0 -1.375l6.875 0l1.359375 -1.59375l3.4375 2.28125q1.609375 1.140625 -1.375 1.609375l0 19.9375l3.4375 0l1.609375 -1.84375l3.4375 3.4375q2.0625 1.84375 -0.921875 1.609375q-1.375 0 -2.0625 0.921875l-3.203125 3.203125q-1.828125 1.375 -0.921875 -0.6875l2.53125 -5.265625l-42.390625 0q0.234375 1.59375 -0.6875 4.125q-0.921875 2.28125 -2.515625 2.734375q-1.84375 0 -1.84375 -1.359375q0 -1.15625 1.609375 -2.984375q1.609375 -2.296875 2.296875 -5.734375q0.453125 -1.375 0.90625 0.234375q0.234375 0.921875 0.234375 1.609375l3.890625 0zm18.796875 12.828125l0 2.28125l18.09375 0l2.984375 -2.96875l3.65625 2.75q1.375 1.140625 0 1.59375l-24.734375 0l0 7.109375q0 2.296875 -1.15625 3.4375q-1.140625 1.140625 -2.28125 1.375q-1.375 0.234375 -1.375 -0.921875q-0.234375 -0.90625 -1.15625 -1.375l-4.125 -0.90625q-0.90625 -0.46875 0 -0.921875l5.5 0q1.609375 0 1.609375 -1.609375l0 -6.1875l-23.59375 0l0 -1.375l23.59375 0l0 -4.578125l3.203125 1.140625l5.96875 -4.578125l-22.0 0l0 -1.375l21.765625 0l2.0625 -1.59375l2.984375 2.28125q2.96875 2.296875 -0.234375 1.828125q-1.375 -0.21875 -2.75 0.46875l-8.015625 4.125zm2.75 -22.234375q-1.15625 1.375 -2.0625 2.53125q2.0625 1.59375 2.75 2.96875q0.6875 1.375 -0.234375 2.0625q-1.140625 0.6875 -1.828125 -0.6875q-1.15625 -1.828125 -2.0625 -2.75q-2.296875 2.296875 -5.734375 3.90625q-1.140625 0.21875 -0.453125 -0.46875q2.96875 -2.0625 5.03125 -4.8125q-1.375 -1.140625 -3.65625 -2.28125q-0.921875 -0.6875 0 -0.6875q2.28125 0.453125 4.578125 1.59375q1.609375 -2.515625 2.515625 -4.125l2.53125 1.609375q1.59375 1.140625 -1.375 1.140625zm0.21875 -13.046875q1.84375 1.140625 -1.140625 1.140625q-0.921875 1.59375 -2.0625 3.203125q2.515625 1.609375 2.75 3.203125q0 2.0625 -1.609375 1.15625q-1.375 -2.0625 -2.28125 -2.75q-2.0625 2.515625 -5.046875 4.34375q-0.921875 0.234375 -0.234375 -0.453125q2.296875 -2.296875 3.90625 -5.265625q-1.375 -0.921875 -3.90625 -1.84375q-0.6875 -0.453125 0.234375 -0.453125q2.296875 0.234375 4.359375 1.140625q2.0625 -3.421875 2.515625 -4.796875l2.515625 1.375zm28.640625 28.171875q9.40625 -12.140625 12.609375 -27.265625l5.03125 1.375q2.53125 0.921875 -2.0625 2.0625q-1.375 4.125 -3.203125 8.015625l12.140625 0l0 -14.421875l3.90625 0.6875q1.828125 1.140625 -0.921875 1.59375l0 12.140625l13.75 0l2.96875 -2.96875l3.671875 2.75q1.375 1.140625 0 1.59375l-20.390625 0l0 13.53125l10.765625 0l2.984375 -2.984375l3.65625 2.75q1.375 1.140625 0 1.609375l-17.40625 0l0 16.03125l16.265625 0l3.4375 -3.4375l4.359375 3.203125q1.375 1.15625 0 1.609375l-50.875 0l0 -1.375l23.828125 0l0 -16.03125l-14.203125 0l0 -1.375l14.203125 0l0 -13.53125l-12.828125 0q-4.8125 9.171875 -11.0 15.125q-1.140625 0.46875 -0.6875 -0.6875zm65.53125 -4.578125l0 4.578125q0 11.453125 -7.78125 21.765625q-1.15625 0.6875 -0.921875 -0.453125q5.734375 -10.546875 5.734375 -20.84375l0 -20.625l3.4375 2.28125l20.15625 0q-0.234375 -3.4375 -0.234375 -6.640625l0 -6.640625l3.90625 0.6875q1.828125 0.6875 -0.921875 2.515625l0 2.984375q0 3.203125 0.234375 7.09375l12.359375 0l3.4375 -3.4375l4.359375 3.21875q1.375 1.140625 0 1.59375l-20.15625 0q1.375 13.0625 4.578125 20.171875q4.125 -6.875 6.875 -14.671875l4.125 2.0625q2.28125 1.375 -1.84375 1.84375q-3.4375 7.328125 -7.78125 13.515625q4.8125 6.875 10.3125 8.46875q1.375 0.234375 1.828125 -0.90625l2.296875 -6.421875q0.90625 -0.921875 0.90625 0.234375l-1.59375 7.09375q0 1.609375 0.6875 2.0625q0.90625 1.375 0 2.296875q-0.6875 0.453125 -2.0625 0.234375q-7.796875 -1.375 -14.4375 -10.3125q-6.640625 7.78125 -14.671875 12.59375q-1.140625 0 -0.453125 -0.90625q7.796875 -5.96875 13.75 -13.984375q-4.125 -9.390625 -5.265625 -23.375l-20.859375 0l0 10.546875l10.546875 0l1.828125 -2.0625l3.4375 2.296875q2.515625 0.90625 -1.375 1.828125q-0.234375 7.5625 -1.140625 14.203125q-0.46875 3.4375 -3.21875 4.8125q-2.515625 1.140625 -2.515625 -0.6875q0 -0.921875 -1.609375 -1.609375l-4.34375 -1.375q-0.453125 -0.453125 0.234375 -0.6875l5.953125 0.921875q2.28125 0.234375 2.75 -2.296875q0.90625 -5.953125 1.140625 -13.96875l-11.6875 0zm33.6875 -18.109375q-1.375 -2.75 -5.265625 -4.8125q-0.921875 -0.453125 0 -0.90625q8.46875 1.375 8.46875 5.71875q0 1.375 -1.375 1.375q-1.140625 0 -1.828125 -1.375zm35.515625 33.0q-0.6875 -4.359375 -3.4375 -8.25q-0.46875 -0.90625 0.6875 -0.453125q5.71875 3.890625 5.71875 8.9375q0 2.0625 -1.59375 2.0625q-1.15625 0 -1.375 -2.296875zm-19.484375 7.796875q3.4375 -6.421875 4.359375 -17.1875l3.4375 0.90625q3.203125 0.921875 -0.6875 1.84375q-2.296875 10.078125 -6.1875 14.890625q-0.921875 0.6875 -0.921875 -0.453125zm8.03125 -23.140625l10.078125 -0.921875q-0.921875 -1.828125 -2.53125 -3.890625q-0.6875 -0.921875 0.46875 -0.6875q6.40625 3.890625 6.40625 7.5625q0 2.0625 -1.59375 2.0625q-0.6875 0 -0.921875 -0.921875q-0.6875 -1.828125 -1.375 -3.203125l-4.8125 0.6875l0 24.96875q-2.96875 2.75 -2.96875 0.234375l0 -24.515625l-6.421875 1.140625q-0.6875 3.890625 -2.0625 0.6875l-1.609375 -3.203125l6.1875 0l9.390625 -16.734375l3.671875 2.0625q1.828125 1.609375 -1.609375 1.375l-10.296875 13.296875zm-1.375 -10.546875q-2.0625 -3.671875 -5.5 -5.5q-0.921875 -0.6875 0.21875 -0.6875q2.53125 0.453125 5.046875 1.609375l5.734375 -11.453125l2.734375 1.828125q3.4375 1.828125 -1.140625 1.828125l-6.40625 8.484375q2.515625 2.28125 2.515625 4.34375q0 1.609375 -1.375 1.609375q-1.140625 0 -1.828125 -2.0625zm10.296875 36.890625q9.171875 -3.4375 15.125 -8.703125l2.296875 2.28125q1.828125 1.375 -1.609375 0.921875q-7.5625 4.578125 -15.578125 6.421875q-1.375 0 -0.234375 -0.921875zm20.625 -33.453125l10.078125 0l2.984375 -2.984375l3.671875 2.75q1.375 1.15625 0 1.609375l-34.375 0l0 -1.375l14.671875 0l0 -5.046875l-10.546875 0l0 -1.375l10.546875 0l0 -4.8125l-14.21875 0l0 -1.375l14.21875 0l0 -6.171875l3.890625 0.6875q1.828125 1.140625 -0.921875 1.59375l0 3.890625l9.171875 0l2.515625 -2.515625l3.203125 2.296875q1.375 1.140625 0 1.59375l-14.890625 0l0 4.8125l7.328125 0l2.53125 -2.515625l3.203125 2.296875q1.375 1.140625 0 1.59375l-13.0625 0l0 5.046875zm-8.9375 11.0l16.5 0l0 -4.125l-16.5 0l0 4.125zm0 5.5l16.5 0l0 -4.125l-16.5 0l0 4.125zm0 5.953125l16.5 0l0 -4.578125l-16.5 0l0 4.578125zm0 1.375l0 1.140625q-2.96875 2.75 -2.96875 0.234375l0 -21.765625l3.4375 2.0625l15.34375 0l1.375 -1.828125l3.203125 2.28125q1.375 1.15625 -0.90625 1.609375l0 16.953125q-2.984375 2.75 -2.984375 0.234375l0 -0.921875l-16.5 0zm11.6875 1.140625q11.921875 2.75 11.921875 7.796875q0 1.609375 -1.609375 1.609375q-1.140625 0 -2.296875 -1.84375q-3.203125 -4.8125 -8.703125 -6.875q-0.6875 -0.6875 0.6875 -0.6875z" fill-rule="nonzero"/><path fill="#b1c4da" d="m257.59842 243.34747l0 0c0 -28.139542 22.811615 -50.95114 50.95114 -50.95114l203.79852 0l0 0c13.513062 0 26.472717 5.368042 36.027893 14.923233c9.555176 9.555206 14.923218 22.514832 14.923218 36.02791l0 368.96387c0 28.139526 -22.811584 50.95111 -50.95111 50.95111l-203.79852 0c-28.139526 0 -50.95114 -22.811584 -50.95114 -50.95111z" fill-rule="evenodd"/><path stroke="#78846a" stroke-width="4.0" stroke-linejoin="round" stroke-linecap="butt" d="m257.59842 243.34747l0 0c0 -28.139542 22.811615 -50.95114 50.95114 -50.95114l203.79852 0l0 0c13.513062 0 26.472717 5.368042 36.027893 14.923233c9.555176 9.555206 14.923218 22.514832 14.923218 36.02791l0 368.96387c0 28.139526 -22.811584 50.95111 -50.95111 50.95111l-203.79852 0c-28.139526 0 -50.95114 -22.811584 -50.95114 -50.95111z" fill-rule="evenodd"/><path fill="#a5b592" d="m394.44894 230.70341l74.519684 0l0 40.913376l-74.519684 0z" fill-rule="evenodd"/><path stroke="#78846a" stroke-width="4.0" stroke-linejoin="round" stroke-linecap="butt" d="m394.44894 230.70341l74.519684 0l0 40.913376l-74.519684 0z" fill-rule="evenodd"/><path fill="#a5b592" d="m345.12003 462.40796l115.74805 0l0 48.692932l-115.74805 0z" fill-rule="evenodd"/><path stroke="#78846a" stroke-width="4.0" stroke-linejoin="round" stroke-linecap="butt" d="m345.12003 462.40796l115.74805 0l0 48.692932l-115.74805 0z" fill-rule="evenodd"/><path fill="#ffffff" d="m392.36905 484.59943l0 -11.75l2.125 0.375q1.0 0.625 -0.5 0.875l0 10.5l3.125 0l1.875 -1.875l2.375 1.75q0.75 0.625 0 0.875l-7.375 0l0 14.625q-1.625 1.5 -1.625 0.125l0 -14.75l-6.375 0l0 -0.75l6.375 0zm-10.375 6.125l0.75 -0.875l1.625 1.125q0.75 0.625 -0.5 0.875l0 6.875q-1.625 1.5 -1.625 0.125l0 -0.75l-5.5 0l0 2.25q-1.625 1.5 -1.625 0.125l0 -10.625l1.875 0.875l5.0 0zm-7.75 -4.25l7.25 0l1.625 -1.625l2.0 1.5q0.75 0.625 0 0.875l-10.875 0l0 -0.75zm0 -3.625l6.875 0l1.625 -1.625l2.0 1.5q0.75 0.625 0 0.875l-10.5 0l0 -0.75zm-1.375 -3.875l9.375 0l1.875 -1.875l2.375 1.75q0.75 0.625 0 0.875l-13.625 0l0 -0.75zm1.5 -4.0l6.125 0l1.625 -1.625l2.0 1.5q0.75 0.625 0 0.875l-9.75 0l0 -0.75zm2.375 16.5l0 5.875l5.5 0l0 -5.875l-5.5 0zm28.0 -10.375q3.125 -3.25 5.0 -9.375l2.125 1.125q0.625 0.5 -0.75 0.625q-0.5 0.875 -1.375 2.125l5.375 0l1.625 -1.625l2.0 1.5q0.75 0.625 0 0.875l-6.625 0q2.5 1.25 2.5 2.75q0 1.0 -0.625 1.0q-0.375 0 -0.5 -0.25q-0.875 -2.375 -2.0 -3.5l-2.125 0q-1.875 3.25 -4.25 5.0q-0.5 0.25 -0.375 -0.25zm18.125 -7.375q-0.625 1.125 -1.125 1.875l6.375 0l1.625 -1.625l2.0 1.5q0.75 0.625 0 0.875l-8.5 0q2.25 1.375 2.25 2.875q0 1.125 -0.75 1.125q-0.375 0 -0.625 -0.625q-0.25 -1.75 -1.5 -3.375l-1.25 0q-1.75 2.75 -3.375 3.875q-0.5 0.375 -0.375 -0.25q2.625 -3.375 3.875 -8.0l2.25 1.125q0.75 0.625 -0.875 0.625zm-11.0 17.375l0 1.375q-1.625 1.5 -1.625 0.125l0 -12.75l1.875 1.25l14.0 0l0.75 -1.0l1.75 1.25q0.75 0.625 -0.5 0.875l0 9.75q-1.625 1.5 -1.625 0.125l0 -1.0l-2.75 0l0 3.25l4.5 0l1.875 -1.875l2.375 1.75q0.75 0.625 0 0.875l-8.75 0l0 5.5q-1.625 1.5 -1.625 0.125l0 -5.625l-5.875 0q-0.75 5.125 -10.5 6.375q-0.5 -0.25 0 -0.5q8.25 -2.0 8.875 -5.875l-10.0 0l0 -0.75l10.125 0q0.25 -1.0 0.375 -3.25l-3.25 0zm4.875 0q-0.125 2.0 -0.375 3.25l5.75 0l0 -3.25l-5.375 0zm-4.875 -6.875l14.625 0l0 -2.375l-14.625 0l0 2.375zm0 3.125l14.625 0l0 -2.375l-14.625 0l0 2.375zm14.625 3.0l0 -2.25l-14.625 0l0 2.25l14.625 0z" fill-rule="nonzero"/><path fill="#000000" fill-opacity="0.0" d="m298.5433 222.7979l95.90552 0l0 56.72441l-95.90552 0z" fill-rule="evenodd"/><path fill="#000000" d="m324.4183 240.1429l1.875 0.375q1.25 0.25 -0.25 1.0l0 3.0l4.25 0l1.625 -1.625l2.0 1.5q0.75 0.625 0 0.875l-7.875 0q0 5.25 1.375 9.0q1.75 -2.875 2.875 -6.625l1.25 0.625q2.0 1.0 0 1.125q-1.625 3.875 -3.375 6.375q1.25 2.2500153 2.75 3.1250153q0.875 0.5 1.25 -0.625l0.75 -2.3750153q0.5 -0.5 0.5 0.12501526l-0.5 2.875q-0.125 0.75 0.25 1.25q0.875 1.125 -0.25 1.25q-1.5 0 -2.875 -1.0q-1.5 -1.125 -2.875 -3.25q-3.125 3.125 -5.5 4.125q-0.875 0.25 -0.25 -0.5q3.0 -2.125 5.0 -5.0000153q-1.875 -3.875 -2.0 -10.5l-10.125 0l0 -0.75l10.125 0l0 -4.375zm10.625 -1.0l-22.375 0l0 23.500015l22.375 0l0 -23.500015zm-22.375 25.500015q-1.625 1.5 -1.625 0.125l0 -27.750015l1.875 1.375l21.875 0l0.875 -1.25l2.125 1.625q1.125 0.875 -1.125 0.875l0 24.750015q-1.625 1.5 -1.625 0.125l0 -1.125l-22.375 0l0 1.25zm4.875 -15.375015l0 4.0l3.5 0l0 -4.0l-3.5 0zm5.125 5.25q-1.625 1.25 -1.625 0.125l0 -0.625l-3.5 0l0 0.75q-1.625 1.5000153 -1.625 0.125l0 -7.25l1.875 0.875l3.0 0l0.625 -1.0l1.75 1.375q0.75 0.625 -0.5 0.875l0 4.75zm2.125 1.7500153q0.5 0 0.125 0.375l-8.875 2.25q-0.25 1.375 -0.875 0.375l-1.125 -1.75l10.75 -1.25zm3.125 -15.500015q0.875 0 1.625 0.375q1.125 0.5 1.25 1.125q0.25 1.0 -0.625 1.0q-0.375 0 -0.75 -0.75q-0.5 -0.875 -1.625 -1.375q-0.375 -0.25 0.125 -0.375zm34.25 3.125q-1.5 8.5 -4.875 12.625015q4.875 3.75 12.375 5.5q-2.0 0.75 -2.375 2.0q-5.875 -1.875 -11.0 -6.375q-4.875 5.0 -14.5 6.75q-1.125 0 -0.25 -0.5q8.875 -2.25 13.625 -7.375q-3.875 -5.2500153 -5.125 -12.625015l-7.75 0l0 -0.75l12.375 0l0 -5.5l2.25 0.375q1.375 0.5 -0.625 1.0l0 4.125l9.25 0l1.875 -1.875l2.375 1.75q0.75 0.625 0 0.875l-7.625 0zm-11.25 0q1.25 6.875 5.25 11.5q3.0 -4.375 4.0 -11.5l-9.25 0z" fill-rule="nonzero"/><path fill="#a5b592" d="m394.44894 287.42783l74.519684 0l0 40.91339l-74.519684 0z" fill-rule="evenodd"/><path stroke="#78846a" stroke-width="4.0" stroke-linejoin="round" stroke-linecap="butt" d="m394.44894 287.42783l74.519684 0l0 40.91339l-74.519684 0z" fill-rule="evenodd"/><path fill="#000000" fill-opacity="0.0" d="m298.5433 279.5223l95.90552 0l0 56.724396l-95.90552 0z" fill-rule="evenodd"/><path fill="#000000" d="m332.1683 311.6173l1.375 0l1.875 -1.875l2.375 1.75q0.75 0.625 0 0.875l-12.875 0q3.0 5.5 12.25 8.25q-1.5 0.25 -2.0 1.625q-8.0 -3.125 -11.0 -9.875l-1.25 0q-2.125 7.625 -13.875 10.125q-0.5 -0.125 0 -0.625q10.625 -3.625 12.125 -9.5l-12.0 0l0 -0.75l4.875 0l0 -7.75l1.875 1.0l6.0 0l0 -4.125l2.125 0.375q1.0 0.625 -0.5 0.875l0 2.875l6.625 0l0.75 -1.0l1.75 1.25q0.75 0.625 -0.5 0.875l0 5.625zm-5.5 -13.625l0 -4.0l2.125 0.375q1.0 0.625 -0.5 0.875l0 2.75l5.125 0l1.875 -1.875l2.375 1.75q0.75 0.625 0 0.875l-9.375 0l0 3.25q-1.625 1.5 -1.625 0.125l0 -3.375l-7.25 0l0 3.375q-1.625 1.5 -1.625 0.125l0 -3.5l-8.5 0l0 -0.75l8.5 0l0 -4.25l2.125 0.375q1.0 0.625 -0.5 0.875l0 3.0l7.25 0zm-4.75 7.625l-6.25 0l0 6.0l5.75 0q0.5 -1.875 0.5 -3.625l0 -2.375zm8.625 0l-7.0 0l0 2.375q0 1.625 -0.375 3.625l7.375 0l0 -6.0zm31.625 -5.0q-1.5 8.5 -4.875 12.625q4.875 3.75 12.375 5.5q-2.0 0.75 -2.375 2.0q-5.875 -1.875 -11.0 -6.375q-4.875 5.0 -14.5 6.75q-1.125 0 -0.25 -0.5q8.875 -2.25 13.625 -7.375q-3.875 -5.25 -5.125 -12.625l-7.75 0l0 -0.75l12.375 0l0 -5.5l2.25 0.375q1.375 0.5 -0.625 1.0l0 4.125l9.25 0l1.875 -1.875l2.375 1.75q0.75 0.625 0 0.875l-7.625 0zm-11.25 0q1.25 6.875 5.25 11.5q3.0 -4.375 4.0 -11.5l-9.25 0z" fill-rule="nonzero"/><path fill="#a5b592" d="m394.44894 343.6404l74.519684 0l0 40.91339l-74.519684 0z" fill-rule="evenodd"/><path stroke="#78846a" stroke-width="4.0" stroke-linejoin="round" stroke-linecap="butt" d="m394.44894 343.6404l74.519684 0l0 40.91339l-74.519684 0z" fill-rule="evenodd"/><path fill="#000000" fill-opacity="0.0" d="m298.5433 335.7349l95.90552 0l0 56.724426l-95.90552 0z" fill-rule="evenodd"/><path fill="#000000" d="m309.0433 378.2049q-0.625 -0.125 0 -0.5q5.875 -1.5 8.75 -4.125q-1.875 -0.75 -3.5 -1.125l-0.5 0.875q-1.25 0.625 -1.375 -0.25l1.875 -3.625l-5.125 0l0 -0.75l5.5 0l1.75 -3.625l-3.875 0l0 0.625q-1.625 1.5 -1.625 0.125l0 -5.75l1.875 0.875l3.625 0l0 -2.25l-3.0 0l0 0.25q-1.625 1.5 -1.625 0.125l0 -3.375l-2.875 0l0 -0.75l2.875 0l0 -3.5l1.875 0.875l2.75 0l0 -3.25l1.875 0.375q1.25 0.25 -0.25 1.0l0 1.875l3.0 0l0.75 -0.875l1.625 1.125q0.75 0.625 -0.5 0.875l0 1.5l1.125 0l1.125 -1.125l1.375 1.0q0.75 0.625 0 0.875l-3.625 0l0 3.25q-1.625 1.5 -1.625 0.125l0 -0.375l-3.25 0l0 2.25l3.625 0l0.75 -0.875l1.625 1.125q0.75 0.625 -0.5 0.875l0 3.625q-1.625 1.5 -1.625 0.125l0 -0.75l-3.625 0q1.0 0.875 -0.5 0.75l-1.5 2.875l6.25 0l1.25 -1.25l1.75 1.125q0.75 0.625 0 0.875l-3.625 0q-0.875 2.125 -2.125 3.75q2.375 0.875 3.0 1.75q0.5 1.25 -0.625 1.25q-0.625 -0.125 -1.125 -0.625q-0.75 -0.75 -2.0 -1.5q-3.5 3.25 -10.0 4.125zm12.625 -0.75q6.375 -3.125 8.75 -7.125q-2.125 -4.25 -2.5 -9.75q-1.25 3.25 -3.25 5.75q-0.625 0.375 -0.5 -0.25q3.375 -6.0 5.0 -16.375l2.625 1.0q1.0 0.375 -0.875 0.75q-1.25 4.5 -2.0 6.5l5.875 0l1.625 -1.625l2.0 1.5q0.75 0.625 0 0.875l-3.0 0q-1.0 7.625 -3.25 11.625q2.5 3.625 6.625 5.25q-1.5 0.5 -2.0 1.5q-3.5 -2.0 -5.5 -5.25q-3.375 4.375 -9.5 6.125q-0.875 0 -0.125 -0.5zm6.75 -18.0q0.75 5.75 2.75 9.625q1.75 -3.75 2.375 -10.375l-4.875 0l-0.25 0.75zm-13.875 12.625q1.5 0.125 3.875 0.75q1.25 -1.625 1.875 -3.375l-4.375 0l-1.375 2.625zm-2.0 -7.75l3.875 0l0 -2.625l-3.875 0l0 2.625zm5.5 0l3.875 0l0 -2.625l-3.875 0l0 2.625zm-1.625 -6.375l0 -2.25l-3.0 0l0 2.25l3.0 0zm-3.0 -3.0l3.0 0l0 -1.875l-3.0 0l0 1.875zm7.875 0l0 -1.875l-3.25 0l0 1.875l3.25 0zm-3.25 3.0l3.25 0l0 -2.25l-3.25 0l0 2.25zm28.125 5.375l0 -12.375l1.5 0.75l4.75 -2.0l1.375 1.375q0.625 0.625 -1.75 0.375l-4.25 0.875l0 2.875l1.625 0l1.25 -1.25l1.625 1.125q0.75 0.625 0 0.875l-4.5 0l0 3.125l1.875 0l1.25 -1.25l1.625 1.125q0.75 0.625 0 0.875l-4.75 0l0 3.5l15.625 0l0 -3.5l-3.875 0l0 -0.75l3.875 0l0 -3.125l-4.0 0l0 -0.75l4.0 0l0 -3.25l-4.0 0l0 -0.75l3.75 0l0.75 -0.875l1.875 1.25q0.875 0.625 -0.75 0.875l0 10.875l1.875 0l0.875 -1.0l1.875 1.875q1.125 1.0 -0.5 0.875q-0.75 0 -1.125 0.5l-1.75 1.75q-1.0 0.75 -0.5 -0.375l1.375 -2.875l-23.125 0q0.125 0.875 -0.375 2.25q-0.5 1.25 -1.375 1.5q-1.0 0 -1.0 -0.75q0 -0.625 0.875 -1.625q0.875 -1.25 1.25 -3.125q0.25 -0.75 0.5 0.125q0.125 0.5 0.125 0.875l2.125 0zm10.25 7.0l0 1.25l9.875 0l1.625 -1.625l2.0 1.5q0.75 0.625 0 0.875l-13.5 0l0 3.875q0 1.25 -0.625 1.875q-0.625 0.625 -1.25 0.75q-0.75 0.125 -0.75 -0.5q-0.125 -0.5 -0.625 -0.75l-2.25 -0.5q-0.5 -0.25 0 -0.5l3.0 0q0.875 0 0.875 -0.875l0 -3.375l-12.875 0l0 -0.75l12.875 0l0 -2.5l1.75 0.625l3.25 -2.5l-12.0 0l0 -0.75l11.875 0l1.125 -0.875l1.625 1.25q1.625 1.25 -0.125 1.0q-0.75 -0.125 -1.5 0.25l-4.375 2.25zm1.5 -12.125q-0.625 0.75 -1.125 1.375q1.125 0.875 1.5 1.625q0.375 0.75 -0.125 1.125q-0.625 0.375 -1.0 -0.375q-0.625 -1.0 -1.125 -1.5q-1.25 1.25 -3.125 2.125q-0.625 0.125 -0.25 -0.25q1.625 -1.125 2.75 -2.625q-0.75 -0.625 -2.0 -1.25q-0.5 -0.375 0 -0.375q1.25 0.25 2.5 0.875q0.875 -1.375 1.375 -2.25l1.375 0.875q0.875 0.625 -0.75 0.625zm0.125 -7.125q1.0 0.625 -0.625 0.625q-0.5 0.875 -1.125 1.75q1.375 0.875 1.5 1.75q0 1.125 -0.875 0.625q-0.75 -1.125 -1.25 -1.5q-1.125 1.375 -2.75 2.375q-0.5 0.125 -0.125 -0.25q1.25 -1.25 2.125 -2.875q-0.75 -0.5 -2.125 -1.0q-0.375 -0.25 0.125 -0.25q1.25 0.125 2.375 0.625q1.125 -1.875 1.375 -2.625l1.375 0.75z" fill-rule="nonzero"/><path fill="#000000" fill-opacity="0.0" d="m298.5433 391.9475l95.90552 0l0 56.724396l-95.90552 0z" fill-rule="evenodd"/><path fill="#000000" d="m338.2933 422.9175q0.75 0.625 0 0.875l-14.125 0l0 10.0q-1.625 1.5 -1.625 0.125l0 -10.125l-12.75 0l0 -0.75l12.75 0l0 -14.0l-11.5 0l0 -0.75l21.25 0l1.875 -1.875l2.375 1.75q0.75 0.625 0 0.875l-12.375 0l0 14.0l9.875 0l1.875 -1.875l2.375 1.75zm-3.75 -10.0q1.0 1.0 -1.5 0.625q-2.625 4.5 -5.5 8.0q-0.5 0.25 -0.375 -0.25q2.875 -4.875 4.75 -10.25l2.625 1.875zm-21.25 -1.375q4.625 3.5 4.625 7.25q0 1.625 -0.875 1.625q-0.75 0 -1.0 -1.0q-0.25 -4.25 -3.125 -7.5q-0.375 -0.625 0.375 -0.375zm56.375 0.5q1.0 0.75 -0.875 1.0l0 3.75q0 12.5 -2.875 15.375q-1.25 1.25 -2.75 1.625q-1.125 0.25 -1.125 -0.375q0 -0.875 -1.125 -1.25l-2.75 -0.875q-0.375 -0.375 0.25 -0.375l2.625 0.375q0.75 0.125 1.875 0.125q1.5 0 2.25 -1.25q2.0 -3.375 2.0 -13.875l0 -3.75l-11.0 0q-2.125 4.625 -5.375 7.75q-1.0 0.75 -0.625 -0.125q4.5 -5.625 6.5 -14.375l3.125 1.25q0.75 0.625 -1.5 0.875l-1.75 3.875l10.25 0l0.875 -1.125l2.0 1.375zm-8.375 8.5q0 1.0 -0.875 1.0q-0.5 0 -1.0 -1.0q-1.75 -2.875 -3.875 -4.25q-0.375 -0.5 0.25 -0.375q5.5 2.625 5.5 4.625zm2.625 2.125q0.875 0 0.25 0.5l-9.375 4.75q-0.375 2.375 -1.25 1.375l-1.75 -2.25q6.375 -1.875 12.125 -4.375zm-18.125 -8.5l0 -7.625l2.25 0.375q1.375 0.5 -0.625 1.0l0 6.25l1.375 0l1.625 -1.625l2.0 1.5q0.75 0.625 0 0.875l-5.0 0l0 10.0l6.375 -2.125q0.75 0 0.125 0.5l-10.375 4.5q-0.625 2.375 -1.25 0.875l-1.375 -2.0l4.875 -1.25l0 -10.5l-4.5 0l0 -0.75l4.5 0z" fill-rule="nonzero"/><path fill="#000000" fill-opacity="0.0" d="m665.97375 381.4357l294.01575 0l0 92.787384l-294.01575 0z" fill-rule="evenodd"/><path fill="#0000ff" d="m685.97375 405.0307q-1.375 12.25 -9.25 18.125q-1.0 0.5 -0.375 -0.5q8.25 -8.125 8.25 -22.25l0 -2.125l-5.625 0l0 -0.75l15.5 0l1.0 -1.0l1.875 1.375q0.875 0.75 -1.125 1.125l-2.625 7.0l5.125 0l0.875 -0.875l1.875 1.375q1.0 0.75 -0.875 1.0q-2.25 5.375 -6.0 9.125q4.125 3.125 10.875 5.125q-2.125 0.5 -3.25 1.625q-4.125 -1.75 -9.0 -5.625q-5.875 4.375 -12.25 5.75q-1.125 0.125 -0.125 -0.625q7.0 -2.5 11.25 -6.25q-4.0 -4.125 -6.125 -11.625zm6.5 3.5q-1.875 0.75 -1.5 -0.375q2.0 -4.75 3.625 -9.875l-8.375 0l0 2.0q0.875 9.125 7.125 15.375q3.5 -3.625 5.375 -8.875l-5.5 0l-0.75 1.75zm15.75 7.0q4.0 -6.0 5.0 -12.5l-4.375 0l0 -0.75l4.375 0l0 -7.0l2.125 0.375q1.0 0.625 -0.5 0.875l0 5.75l1.875 0l1.625 -1.625l2.0 1.5q0.75 0.625 0 0.875l-5.5 0l0 4.0q3.125 0.75 4.0 1.625q0.625 0.625 0.625 1.625q0 0.75 -0.5 0.75q-0.5 0 -1.25 -1.125q-1.0 -1.5 -2.875 -2.25l0 15.375q-1.625 1.5 -1.625 0.125l0 -13.75q-1.75 3.75 -4.625 6.625q-0.75 0.5 -0.375 -0.5zm18.625 -19.25q1.0 0.75 -0.875 1.0q-0.625 1.375 -1.375 2.625l6.875 0l0.75 -1.0l1.875 1.375q0.75 0.625 -1.0 0.75q-2.125 3.375 -4.875 6.25q4.25 3.375 10.0 4.5q-1.375 0.375 -2.25 1.75q-4.5 -1.5 -8.75 -5.25q-2.5 2.375 -4.875 3.875l1.125 1.125l7.625 0l0.75 -1.0l1.75 1.25q0.75 0.625 -0.5 0.875l0 8.0q-1.625 1.5 -1.625 0.125l0 -1.25l-8.25 0l0 1.625q-1.625 1.5 -1.625 0.125l0 -10.375q-2.125 1.5 -4.875 2.75q-1.0 0.125 -0.25 -0.625q5.75 -3.25 9.75 -7.625q-2.0 -2.375 -2.75 -5.25q-1.625 2.75 -4.75 5.25q-0.625 0.375 -0.5 -0.25q4.5 -4.625 6.375 -11.375l2.25 0.75zm-2.625 4.375l-0.25 0.625q0.875 2.625 3.125 4.875q2.375 -2.375 4.125 -5.5l-7.0 0zm-1.0 13.375l0 6.5l8.25 0l0 -6.5l-8.25 0zm17.75 9.375q-0.75 0.375 -0.375 -0.375q4.75 -5.75 4.75 -12.25l0 -14.875l1.875 1.125l17.0 0l0.75 -1.0l1.75 1.25q0.75 0.625 -0.5 0.875l0 21.875q0 1.5 -0.875 2.25q-0.75 0.625 -1.5 0.75q-0.75 0.125 -0.75 -0.625q0 -0.625 -0.625 -0.875l-2.25 -0.5q-0.625 -0.25 0 -0.5l3.25 0q1.125 0 1.125 -1.125l0 -7.375l-8.375 0l0 10.25q-1.625 1.5 -1.625 0.125l0 -10.375l-7.625 0q-0.375 6.25 -6.0 11.375zm23.625 -19.25l0 -6.375l-8.375 0l0 6.375l8.375 0zm-17.625 0l7.625 0l0 -6.375l-7.625 0l0 6.375zm7.625 7.125l0 -6.375l-7.625 0l0 6.375l7.625 0zm1.625 -6.375l0 6.375l8.375 0l0 -6.375l-8.375 0zm33.0 -5.5l-6.125 0l0 2.25q-1.625 1.5 -1.625 0.125l0 -2.375l-9.0 0l0 -0.75l9.0 0l0 -3.5l2.125 0.375q1.0 0.625 -0.5 0.875l0 2.25l6.125 0l0 -3.5l2.125 0.375q1.0 0.625 -0.5 0.875l0 2.25l5.75 0l1.875 -1.875l2.375 1.75q0.75 0.625 0 0.875l-10.0 0l0 1.375l2.25 0.75q1.0 0.625 -0.875 0.75q-0.75 1.625 -1.375 2.5l6.375 0l1.625 -1.625l2.0 1.5q0.75 0.625 0 0.875l-10.375 0q-1.375 2.375 -3.625 4.125q-0.5 0.125 -0.25 -0.375q3.0 -3.75 3.875 -7.5q-1.25 1.125 -1.25 -0.25l0 -2.125zm1.25 23.0l4.375 0l0 -6.0l-4.375 0l0 6.0zm-5.875 -19.5l1.375 -1.375l1.75 1.25q0.75 0.625 0 0.875l-6.0 0l0 2.625l2.5 0l0.75 -1.0l1.75 1.25q0.75 0.625 -0.5 0.875l0 3.5q-1.625 1.5 -1.625 0.125l0 -0.625l-2.875 0l0 2.75l3.25 0l1.625 -1.625l2.0 1.5q0.75 0.625 0 0.875l-12.5 0l0 1.75q-1.625 1.5 -1.625 0.125l0 -13.75l1.875 0.875l8.25 0zm-8.5 3.375l4.0 0l0 -2.625l-4.0 0l0 2.625zm8.5 3.375l0 -2.625l-8.5 0l0 2.625l8.5 0zm-8.5 3.5l4.0 0l0 -2.75l-4.0 0l0 2.75zm13.25 -2.875l7.25 0l1.375 -1.375l1.75 1.25q0.75 0.625 0 0.875l-10.375 0l0 -0.75zm-4.375 12.125l3.875 0l0 -6.0l-3.875 0l0 6.0zm-5.75 0l4.125 0l0 -6.0l-4.125 0l0 6.0zm-1.625 -7.75l1.875 1.0l15.0 0l0.75 -1.0l1.75 1.25q0.75 0.625 -0.5 0.875l0 5.625l1.125 0l1.875 -1.875l2.375 1.75q0.75 0.625 0 0.875l-29.75 0l0 -0.75l5.5 0l0 -7.75zm27.25 -5.375q-0.625 0 -0.25 -0.5q6.125 -4.875 10.625 -14.0l2.375 1.5q0.375 0.75 -1.125 0.5q-0.75 1.125 -1.625 2.125l8.25 0l0.75 -1.0l2.125 1.375q0.875 0.625 -1.25 0.875l-4.0 5.0l6.0 0l0.75 -1.0l1.75 1.25q0.75 0.625 -0.5 0.875l0 7.625q-1.625 1.5 -1.625 0.125l0 -1.25l-16.375 0l0 7.75q0 0.5 0.5 0.5l18.375 0q1.25 0 1.5 -1.25l0.875 -4.125q0.25 -0.25 0.375 0l0 4.375q0 0.625 0.5 1.0q0.75 0.625 -0.125 1.125q-0.625 0.375 -1.875 0.375l-20.25 0q-1.5 0 -1.5 -1.5l0 -15.0q-1.875 1.75 -4.25 3.25zm9.5 -9.625q-1.125 1.75 -3.875 5.0l0.5 0.5l9.0 0l3.125 -5.5l-8.75 0zm5.375 12.375l7.375 0l0 -6.125l-7.375 0l0 6.125zm-9.0 0l7.375 0l0 -6.125l-7.375 0l0 6.125zm44.0 0.625l0 3.875l7.25 0l0 -3.875l-7.25 0zm0 -4.875l0 4.125l7.25 0l0 -4.125l-7.25 0zm0 -5.0l0 4.25l7.25 0l0 -4.25l-7.25 0zm-1.625 -2.0l1.875 1.25l2.0 0l0.625 -3.875l-6.125 0l0 -0.75l10.375 0l1.625 -1.625l2.0 1.5q0.75 0.625 0 0.875l-6.0 0l-1.75 3.875l4.0 0l0.875 -0.875l1.375 0.875q1.375 0.875 -0.375 1.25l0 15.0q-1.625 1.5 -1.625 0.125l0 -1.125l-7.25 0l0 1.375q-1.625 1.5 -1.625 0.125l0 -18.0zm3.75 20.25q-3.75 2.375 -6.875 3.25q-1.125 0.25 -0.25 -0.5q4.375 -2.25 6.75 -4.75l1.375 1.125q1.375 1.125 -1.0 0.875zm5.625 -0.875q2.375 1.25 2.875 2.375q0.375 0.875 -0.5 1.125q-0.5 0.125 -1.125 -0.625q-1.875 -2.25 -4.625 -3.75q-0.625 -0.5 0.25 -0.375q1.5 0.375 3.125 1.25zm-14.5 -16.125l-8.5 0l0 1.0q-1.625 1.5 -1.625 0l0 -8.875l1.875 0.875l8.0 0l0.875 -0.875l1.375 0.875q1.375 0.875 -0.375 1.25l0 6.375q-1.625 1.5 -1.625 0l0 -0.625zm-8.5 -6.25l0 2.5l8.5 0l0 -2.5l-8.5 0zm3.875 12.0q1.25 0.875 -0.625 0.75l-3.0 4.375l2.5 0q-0.25 -0.5 -0.5 -1.0q-0.5 -0.875 0.375 -0.375q1.5 1.0 1.875 2.25q0.125 0.75 -0.375 1.0q-0.5 0.125 -0.75 -0.375q-0.25 -0.625 -0.375 -1.0l-5.0 0.75q-0.375 2.25 -1.125 0.375l-0.625 -1.625l3.375 0l2.875 -6.125l1.375 1.0zm7.625 -0.25q1.25 0.875 -0.625 0.75l-3.0 4.5l2.5 0q-0.25 -0.5 -0.625 -1.125q-0.5 -0.75 0.375 -0.375q1.625 1.0 2.25 2.5q0.25 1.125 -0.5 1.25q-0.5 0.125 -0.75 -0.5q-0.25 -0.625 -0.5 -1.25l-4.0 0.625q-0.5 1.625 -1.25 0.125l-0.625 -1.25l2.375 0l3.0 -6.25l1.375 1.0zm-11.5 -6.25l8.5 0l0 -2.25l-8.5 0l0 2.25zm-0.375 6.375q0.75 0.625 0.875 1.375q0 0.75 -0.5 0.875q-0.5 0.125 -0.875 -0.625q-0.625 -1.25 -1.875 -2.375q-0.5 -0.625 0.25 -0.375q0.875 0.25 1.625 0.75l1.5 -4.0l1.0 0.75q1.0 0.75 -0.25 0.875l-1.75 2.75zm7.25 -0.125q0.875 0.75 0.875 1.375q0 0.625 -0.5 0.75q-0.625 0 -0.875 -0.625q-0.625 -1.125 -1.625 -2.0q-0.625 -0.625 0.375 -0.375q0.75 0.25 1.375 0.625l1.25 -3.875l1.125 0.75q1.375 0.875 -0.125 0.875l-1.875 2.5zm3.75 11.5q-0.5 -1.375 -2.0 -3.125q-0.5 -0.625 0.25 -0.375q2.0 0.875 3.125 2.75q0.375 1.375 -0.375 1.5q-0.625 0.125 -1.0 -0.75zm-10.625 -2.5q0.25 2.5 -0.875 4.25q-0.75 0.875 -1.625 0.75q-0.875 -0.625 0.625 -2.0q1.0 -1.25 1.25 -3.0q0.375 -1.125 0.625 0zm6.0 -0.375q1.625 1.625 2.125 3.375q0.125 1.125 -0.5 1.25q-0.625 0.125 -0.875 -0.875q-0.375 -1.5 -1.125 -3.375q-0.5 -1.0 0.375 -0.375zm-2.125 4.5q-0.125 0.75 -0.875 0.875q-0.75 -0.125 -0.5 -1.25q0.5 -1.875 0.25 -3.625q0 -1.0 0.5 -0.125q0.875 2.25 0.625 4.125zm50.25 -6.125q-1.875 -3.75 -6.0 -6.75q-0.625 -0.5 0.125 -0.5q8.5 4.25 8.5 7.25q0 1.375 -1.0 1.375q-0.875 0 -1.625 -1.375zm-25.125 2.5q4.625 -4.25 7.125 -9.75l2.125 1.625q1.125 1.0 -1.125 0.625q-3.625 5.25 -7.875 8.0q-0.875 0.25 -0.25 -0.5zm0.625 -13.375l23.5 0l1.875 -1.875l2.375 1.75q0.75 0.625 0 0.875l-12.875 0l0 13.375q0 1.5 -0.875 2.25q-0.75 0.625 -1.5 0.75q-0.75 0.125 -0.75 -0.625q0 -0.625 -0.625 -0.875l-2.25 -0.5q-0.625 -0.25 0 -0.5l3.25 0q1.125 0 1.125 -1.125l0 -12.75l-13.25 0l0 -0.75zm4.0 -6.375l0 -0.75l15.625 0l1.875 -1.875l2.375 1.75q0.75 0.625 0 0.875l-19.875 0z" fill-rule="nonzero"/><path fill="#ff0000" d="m693.09875 445.2807q4.375 1.25 7.875 3.625q3.375 2.25 3.375 3.5q0 1.0 -0.875 1.0q-0.75 0 -2.125 -1.75q-2.5 -3.125 -8.375 -5.875q-0.625 -0.5 0.125 -0.5zm-3.375 -2.75q-5.875 6.875 -12.5 10.75q-0.75 0.25 -0.375 -0.375q9.375 -7.125 14.375 -15.375l-13.5 0l0 -0.75l22.5 0l1.875 -1.875l2.375 1.75q0.75 0.625 0 0.875l-12.125 0l1.125 0.75q1.0 0.625 -0.875 0.75q-1.125 1.5 -2.25 2.75l1.5 0.5q1.0 0.625 -0.5 0.875l0 17.5q-1.625 1.5 -1.625 0.125l0 -18.25zm28.25 0.5q-1.375 12.25 -9.25 18.125q-1.0 0.5 -0.375 -0.5q8.25 -8.125 8.25 -22.25l0 -2.125l-5.625 0l0 -0.75l15.5 0l1.0 -1.0l1.875 1.375q0.875 0.75 -1.125 1.125l-2.625 7.0l5.125 0l0.875 -0.875l1.875 1.375q1.0 0.75 -0.875 1.0q-2.25 5.375 -6.0 9.125q4.125 3.125 10.875 5.125q-2.125 0.5 -3.25 1.625q-4.125 -1.75 -9.0 -5.625q-5.875 4.375 -12.25 5.75q-1.125 0.125 -0.125 -0.625q7.0 -2.5 11.25 -6.25q-4.0 -4.125 -6.125 -11.625zm6.5 3.5q-1.875 0.75 -1.5 -0.375q2.0 -4.75 3.625 -9.875l-8.375 0l0 2.0q0.875 9.125 7.125 15.375q3.5 -3.625 5.375 -8.875l-5.5 0l-0.75 1.75zm15.75 7.0q4.0 -6.0 5.0 -12.5l-4.375 0l0 -0.75l4.375 0l0 -7.0l2.125 0.375q1.0 0.625 -0.5 0.875l0 5.75l1.875 0l1.625 -1.625l2.0 1.5q0.75 0.625 0 0.875l-5.5 0l0 4.0q3.125 0.75 4.0 1.625q0.625 0.625 0.625 1.625q0 0.75 -0.5 0.75q-0.5 0 -1.25 -1.125q-1.0 -1.5 -2.875 -2.25l0 15.375q-1.625 1.5 -1.625 0.125l0 -13.75q-1.75 3.75 -4.625 6.625q-0.75 0.5 -0.375 -0.5zm18.625 -19.25q1.0 0.75 -0.875 1.0q-0.625 1.375 -1.375 2.625l6.875 0l0.75 -1.0l1.875 1.375q0.75 0.625 -1.0 0.75q-2.125 3.375 -4.875 6.25q4.25 3.375 10.0 4.5q-1.375 0.375 -2.25 1.75q-4.5 -1.5 -8.75 -5.25q-2.5 2.375 -4.875 3.875l1.125 1.125l7.625 0l0.75 -1.0l1.75 1.25q0.75 0.625 -0.5 0.875l0 8.0q-1.625 1.5 -1.625 0.125l0 -1.25l-8.25 0l0 1.625q-1.625 1.5 -1.625 0.125l0 -10.375q-2.125 1.5 -4.875 2.75q-1.0 0.125 -0.25 -0.625q5.75 -3.25 9.75 -7.625q-2.0 -2.375 -2.75 -5.25q-1.625 2.75 -4.75 5.25q-0.625 0.375 -0.5 -0.25q4.5 -4.625 6.375 -11.375l2.25 0.75zm-2.625 4.375l-0.25 0.625q0.875 2.625 3.125 4.875q2.375 -2.375 4.125 -5.5l-7.0 0zm-1.0 13.375l0 6.5l8.25 0l0 -6.5l-8.25 0zm17.75 9.375q-0.75 0.375 -0.375 -0.375q4.75 -5.75 4.75 -12.25l0 -14.875l1.875 1.125l17.0 0l0.75 -1.0l1.75 1.25q0.75 0.625 -0.5 0.875l0 21.875q0 1.5 -0.875 2.25q-0.75 0.625 -1.5 0.75q-0.75 0.125 -0.75 -0.625q0 -0.625 -0.625 -0.875l-2.25 -0.5q-0.625 -0.25 0 -0.5l3.25 0q1.125 0 1.125 -1.125l0 -7.375l-8.375 0l0 10.25q-1.625 1.5 -1.625 0.125l0 -10.375l-7.625 0q-0.375 6.25 -6.0 11.375zm23.625 -19.25l0 -6.375l-8.375 0l0 6.375l8.375 0zm-17.625 0l7.625 0l0 -6.375l-7.625 0l0 6.375zm7.625 7.125l0 -6.375l-7.625 0l0 6.375l7.625 0zm1.625 -6.375l0 6.375l8.375 0l0 -6.375l-8.375 0zm24.25 5.0l0 13.375q-1.625 1.5 -1.625 0.125l0 -13.5l-5.0 0.75q-0.5 1.875 -1.0 0.375l-0.375 -1.625l4.875 -0.25l5.0 -9.125l1.625 0.875q1.625 1.0 -0.75 1.125l-5.0 7.0l5.625 -0.25q-0.375 -1.0 -1.625 -2.375q-0.5 -0.625 0.375 -0.375q3.75 2.25 3.75 4.625q0 1.125 -0.75 1.125q-0.5 0 -0.75 -0.75q-0.375 -1.0 -0.75 -1.75l-3.625 0.625zm-4.5 -4.5q-0.625 -2.125 -2.875 -4.125q-0.5 -0.625 0.25 -0.375q1.375 0.625 2.5 1.5l3.125 -6.75l1.625 1.0q1.5 1.25 -0.875 1.0l-3.5 5.125q1.375 1.25 1.375 2.25q0 1.125 -0.75 1.125q-0.625 0 -0.875 -0.75zm-2.875 16.125q-0.75 0.625 -0.5 -0.375q2.0 -4.625 2.5 -8.375l2.375 0.75q1.0 0.625 -1.0 0.875q-1.125 3.875 -3.375 7.125zm13.0 -4.875q0 1.25 -0.875 1.25q-0.625 0 -0.875 -1.375q-0.5 -2.25 -2.125 -3.75q-0.375 -0.75 0.375 -0.375q3.5 2.125 3.5 4.25zm6.75 3.125l5.0 0l1.625 -1.625l2.0 1.5q0.75 0.625 0 0.875l-17.75 0l0 -0.75l7.5 0l0 -19.125l-6.125 0l0 -0.75l12.125 0l1.625 -1.625l2.0 1.5q0.75 0.625 0 0.875l-8.0 0l0 19.125zm12.0 -10.5q-0.625 0 -0.25 -0.5q6.125 -4.875 10.625 -14.0l2.375 1.5q0.375 0.75 -1.125 0.5q-0.75 1.125 -1.625 2.125l8.25 0l0.75 -1.0l2.125 1.375q0.875 0.625 -1.25 0.875l-4.0 5.0l6.0 0l0.75 -1.0l1.75 1.25q0.75 0.625 -0.5 0.875l0 7.625q-1.625 1.5 -1.625 0.125l0 -1.25l-16.375 0l0 7.75q0 0.5 0.5 0.5l18.375 0q1.25 0 1.5 -1.25l0.875 -4.125q0.25 -0.25 0.375 0l0 4.375q0 0.625 0.5 1.0q0.75 0.625 -0.125 1.125q-0.625 0.375 -1.875 0.375l-20.25 0q-1.5 0 -1.5 -1.5l0 -15.0q-1.875 1.75 -4.25 3.25zm9.5 -9.625q-1.125 1.75 -3.875 5.0l0.5 0.5l9.0 0l3.125 -5.5l-8.75 0zm5.375 12.375l7.375 0l0 -6.125l-7.375 0l0 6.125zm-9.0 0l7.375 0l0 -6.125l-7.375 0l0 6.125zm44.0 0.625l0 3.875l7.25 0l0 -3.875l-7.25 0zm0 -4.875l0 4.125l7.25 0l0 -4.125l-7.25 0zm0 -5.0l0 4.25l7.25 0l0 -4.25l-7.25 0zm-1.625 -2.0l1.875 1.25l2.0 0l0.625 -3.875l-6.125 0l0 -0.75l10.375 0l1.625 -1.625l2.0 1.5q0.75 0.625 0 0.875l-6.0 0l-1.75 3.875l4.0 0l0.875 -0.875l1.375 0.875q1.375 0.875 -0.375 1.25l0 15.0q-1.625 1.5 -1.625 0.125l0 -1.125l-7.25 0l0 1.375q-1.625 1.5 -1.625 0.125l0 -18.0zm3.75 20.25q-3.75 2.375 -6.875 3.25q-1.125 0.25 -0.25 -0.5q4.375 -2.25 6.75 -4.75l1.375 1.125q1.375 1.125 -1.0 0.875zm5.625 -0.875q2.375 1.25 2.875 2.375q0.375 0.875 -0.5 1.125q-0.5 0.125 -1.125 -0.625q-1.875 -2.25 -4.625 -3.75q-0.625 -0.5 0.25 -0.375q1.5 0.375 3.125 1.25zm-14.5 -16.125l-8.5 0l0 1.0q-1.625 1.5 -1.625 0l0 -8.875l1.875 0.875l8.0 0l0.875 -0.875l1.375 0.875q1.375 0.875 -0.375 1.25l0 6.375q-1.625 1.5 -1.625 0l0 -0.625zm-8.5 -6.25l0 2.5l8.5 0l0 -2.5l-8.5 0zm3.875 12.0q1.25 0.875 -0.625 0.75l-3.0 4.375l2.5 0q-0.25 -0.5 -0.5 -1.0q-0.5 -0.875 0.375 -0.375q1.5 1.0 1.875 2.25q0.125 0.75 -0.375 1.0q-0.5 0.125 -0.75 -0.375q-0.25 -0.625 -0.375 -1.0l-5.0 0.75q-0.375 2.25 -1.125 0.375l-0.625 -1.625l3.375 0l2.875 -6.125l1.375 1.0zm7.625 -0.25q1.25 0.875 -0.625 0.75l-3.0 4.5l2.5 0q-0.25 -0.5 -0.625 -1.125q-0.5 -0.75 0.375 -0.375q1.625 1.0 2.25 2.5q0.25 1.125 -0.5 1.25q-0.5 0.125 -0.75 -0.5q-0.25 -0.625 -0.5 -1.25l-4.0 0.625q-0.5 1.625 -1.25 0.125l-0.625 -1.25l2.375 0l3.0 -6.25l1.375 1.0zm-11.5 -6.25l8.5 0l0 -2.25l-8.5 0l0 2.25zm-0.375 6.375q0.75 0.625 0.875 1.375q0 0.75 -0.5 0.875q-0.5 0.125 -0.875 -0.625q-0.625 -1.25 -1.875 -2.375q-0.5 -0.625 0.25 -0.375q0.875 0.25 1.625 0.75l1.5 -4.0l1.0 0.75q1.0 0.75 -0.25 0.875l-1.75 2.75zm7.25 -0.125q0.875 0.75 0.875 1.375q0 0.625 -0.5 0.75q-0.625 0 -0.875 -0.625q-0.625 -1.125 -1.625 -2.0q-0.625 -0.625 0.375 -0.375q0.75 0.25 1.375 0.625l1.25 -3.875l1.125 0.75q1.375 0.875 -0.125 0.875l-1.875 2.5zm3.75 11.5q-0.5 -1.375 -2.0 -3.125q-0.5 -0.625 0.25 -0.375q2.0 0.875 3.125 2.75q0.375 1.375 -0.375 1.5q-0.625 0.125 -1.0 -0.75zm-10.625 -2.5q0.25 2.5 -0.875 4.25q-0.75 0.875 -1.625 0.75q-0.875 -0.625 0.625 -2.0q1.0 -1.25 1.25 -3.0q0.375 -1.125 0.625 0zm6.0 -0.375q1.625 1.625 2.125 3.375q0.125 1.125 -0.5 1.25q-0.625 0.125 -0.875 -0.875q-0.375 -1.5 -1.125 -3.375q-0.5 -1.0 0.375 -0.375zm-2.125 4.5q-0.125 0.75 -0.875 0.875q-0.75 -0.125 -0.5 -1.25q0.5 -1.875 0.25 -3.625q0 -1.0 0.5 -0.125q0.875 2.25 0.625 4.125zm50.25 -6.125q-1.875 -3.75 -6.0 -6.75q-0.625 -0.5 0.125 -0.5q8.5 4.25 8.5 7.25q0 1.375 -1.0 1.375q-0.875 0 -1.625 -1.375zm-25.125 2.5q4.625 -4.25 7.125 -9.75l2.125 1.625q1.125 1.0 -1.125 0.625q-3.625 5.25 -7.875 8.0q-0.875 0.25 -0.25 -0.5zm0.625 -13.375l23.5 0l1.875 -1.875l2.375 1.75q0.75 0.625 0 0.875l-12.875 0l0 13.375q0 1.5 -0.875 2.25q-0.75 0.625 -1.5 0.75q-0.75 0.125 -0.75 -0.625q0 -0.625 -0.625 -0.875l-2.25 -0.5q-0.625 -0.25 0 -0.5l3.25 0q1.125 0 1.125 -1.125l0 -12.75l-13.25 0l0 -0.75zm4.0 -6.375l0 -0.75l15.625 0l1.875 -1.875l2.375 1.75q0.75 0.625 0 0.875l-19.875 0z" fill-rule="nonzero"/><path fill="#fbef59" d="m624.3999 469.4042l0 -20.787415l-229.95276 0l0 -41.5748l229.95276 0l0 -20.787384l41.57483 41.5748z" fill-rule="evenodd"/><path stroke="#78846a" stroke-width="4.0" stroke-linejoin="round" stroke-linecap="butt" d="m624.3999 469.4042l0 -20.787415l-229.95276 0l0 -41.5748l229.95276 0l0 -20.787384l41.57483 41.5748z" fill-rule="evenodd"/></g></svg>